<?xml version="1.0" standalone="no"?> 
<!DOCTYPE svg PUBLIC "-//W3C//DTD SVG 1.1//EN" "http://www.w3.org/Graphics/SVG/1.1/DTD/svg11.dtd" >
<svg xmlns="http://www.w3.org/2000/svg">
<defs>
  <font id="hiso-dark" horiz-adv-x="135">
    <font-face font-family="hiso-dark"
      units-per-em="126" ascent="126"
      descent="0" />
    <missing-glyph horiz-adv-x="0" />
    <glyph glyph-name="DIGIT ZERO"
      unicode="&#x30;"
      horiz-adv-x="90" d=" M36 117.009L9 103.509L0 90.009V27.009L36 9.009L63 22.509L72 36.009V99.009L36 117.009zM69 37.509L36 54.009V57.358999999999995L69 40.858999999999995V37.509zM3 89.098L11.06 101.188L36 113.658L65.28999999999999 99.008L42.93999999999999 87.828L32.99999999999999 72.91900000000001V13.859000000000009L3.3499999999999943 28.67800000000001V28.688000000000017L2.9999999999999942 28.859000000000023V89.09800000000001zM35.99999999999999 32.658000000000015V36.00800000000001L59.64999999999999 24.188000000000017L56.29899999999999 22.50800000000001L35.99999999999999 32.658000000000015z" />
    <glyph glyph-name="HYPHEN-MINUS"
      unicode="&#x2D;"
      horiz-adv-x="90" d=" M12 58.146L42 43.146V31.854L12 46.854V58.146M9 63V45L45 27V45L9 63z" />
    <glyph glyph-name="FULL STOP"
      unicode="&#x2E;"
      horiz-adv-x="90" d=" M30 31.146L42 25.146V13.854L30 19.854V31.146M27 36V18L45 9V27L27 36z" />
    <glyph glyph-name="SOLIDUS"
      unicode="&#x2F;"
      horiz-adv-x="90" d=" M46.574 112.859L77.189 97.55199999999999L43.42499999999999 13.141999999999996L12.81099999999999 28.448999999999998L46.573999999999984 112.859M44.999999999999986 117L8.999999999999986 27L44.999999999999986 9L80.99999999999999 99L44.999999999999986 117z" />
    <glyph glyph-name="COLON"
      unicode="&#x3A;"
      horiz-adv-x="90" d=" M30 67.146L42 61.146V49.854L30 55.854V67.146M30 40.146L42 34.146V22.854L30 28.854V40.146M27 72V54L45 45V63L27 72zM27 45V27L45 18V36L27 45z" />
    <glyph glyph-name="SEMICOLON"
      unicode="&#x3B;"
      horiz-adv-x="90" d=" M30 67.16L42 61.16V49.867999999999995L30 55.867999999999995V67.16M30 40.16L39.936 35.19199999999999L30 25.25699999999999V40.16M27 72.014V54.013999999999996L45 45.013999999999996V63.013999999999996L27 72.014zM27 45.013999999999996V18.013999999999996L45 36.013999999999996L27 45.013999999999996z" />
    <glyph glyph-name="LESS-THAN SIGN"
      unicode="&#x3C;"
      horiz-adv-x="90" d=" M63 90L27 108L9 63L27 36L63 18L45 45L63 90zM28.573999999999998 103.858L59.18899999999999 88.551L43.425 49.141000000000005L12.810999999999996 64.44900000000001L28.573999999999998 103.858z" />
    <glyph glyph-name="GREATER-THAN SIGN"
      unicode="&#x3E;"
      horiz-adv-x="90" d=" M45 81L9 99L27 72L9 27L45 9L63 54L45 81zM43.426 13.141999999999996L12.811000000000003 28.448999999999998L28.575000000000003 67.859L59.19 52.55199999999999L43.426 13.141999999999996z" />
    <glyph glyph-name="REVERSE SOLIDUS"
      unicode="&#x5C;"
      horiz-adv-x="90" d=" M45 45L81 27L45 81L9 99z" />
    <glyph glyph-name="DIGIT ONE"
      unicode="&#x31;"
      horiz-adv-x="90" d=" M54 36.013999999999996V90.014L18 108.014L0 99.014L18 90.012V36.013999999999996L0 27.013999999999996L36 9.013999999999996L72 27.013999999999996L54 36.013999999999996zM18 104.664L50.65 88.334L39.36 82.69300000000001H39.35L6.700000000000003 99.013L18.000000000000004 104.664zM21.000000000000004 88.512L39.35000000000001 79.33500000000001L51.00000000000001 85.164V21.183999999999997L21.000000000000007 36.184V88.512zM36.00000000000001 12.364000000000004L6.699000000000009 27.01400000000001L19.67900000000001 33.504000000000005L48.96800000000001 18.854L36.000000000000014 12.364000000000004zM54.000000000000014 21.364000000000004V32.664L65.30000000000001 27.013999999999996L54.000000000000014 21.36399999999999z" />
    <glyph glyph-name="DIGIT TWO"
      unicode="&#x32;"
      horiz-adv-x="90" d=" M39.35 115.306L36 116.986L0 98.98599999999999L36 80.98599999999999L0 62.986V26.98599999999999L36 8.98599999999999L72 26.98599999999999L36 44.98599999999999L72 62.98599999999999V98.98599999999999L39.35 115.30599999999998zM6.710000000000001 98.98599999999999L36 113.636L68.65 97.30599999999998L39.35000000000001 82.666L6.710000000000008 98.98599999999999zM65.29 26.98599999999999L36.00000000000001 12.335999999999984V41.63599999999998L65.29 26.985999999999976zM33.00000000000001 46.835999999999984V13.835999999999984L3.000000000000007 28.835999999999984V61.13599999999998L3.350000000000007 61.30599999999998L39.35000000000001 79.30599999999998L68.65 64.66599999999998L33.00000000000001 46.835999999999984z" />
    <glyph glyph-name="INFORMATION SOURCE"
      unicode="&#x2139;"
      horiz-adv-x="99" d=" M54 103.5L0 76.5V22.5L27 9L81 36V90L54 103.5zM3 24.36V73.31L27 61.20100000000001V12.26100000000001L3 24.360000000000014zM56 30.330000000000013C45.35 24.820000000000007 36.049 29.580000000000013 36.32 40.170000000000016C36.629 52.31000000000002 45.26 64.13000000000002 56 69.69000000000001C66.64 75.20100000000002 75.95 70.44000000000001 75.68 59.85000000000001C75.37 47.71000000000001 66.74000000000001 35.88900000000001 56.00000000000001 30.330000000000013zM28.549000000000007 63.780000000000015L5.010000000000005 75.65L54.00000000000001 100.15L77.549 88.28000000000002L28.549000000000007 63.780000000000015zM53.49000000000001 60.04000000000002C54.13800000000001 59.71000000000002 54.92900000000001 59.770000000000024 55.84000000000001 60.23000000000002C56.77900000000001 60.70100000000002 57.57000000000001 61.420000000000016 58.21000000000001 62.40000000000002C58.86100000000001 63.38000000000002 59.18000000000001 64.34000000000002 59.18000000000001 65.27000000000001C59.18000000000001 66.19000000000003 58.86200000000001 66.82000000000002 58.21000000000001 67.15000000000002C57.57000000000001 67.48900000000002 56.77900000000001 67.42100000000002 55.84000000000001 66.96000000000002C54.92000000000001 66.48900000000003 54.119000000000014 65.76000000000002 53.47900000000001 64.78000000000003C52.83000000000001 63.800000000000026 52.500000000000014 62.85000000000002 52.500000000000014 61.93000000000002C52.500000000000014 61.000000000000014 52.83000000000001 60.37000000000002 53.490000000000016 60.04000000000002zM58.939000000000014 39.40000000000002C58.83900000000001 39.800000000000026 58.76900000000001 41.280000000000015 58.76900000000001 43.82000000000002V51.270000000000024C58.76900000000001 53.270000000000024 58.86100000000001 55.45100000000002 59.030000000000015 57.81000000000003L58.509000000000015 57.84100000000004C57.179000000000016 56.64000000000004 55.94900000000001 55.63100000000004 54.829000000000015 54.81000000000003C53.698000000000015 53.98000000000003 52.039000000000016 52.91100000000003 49.829000000000015 51.56900000000003V49.910000000000025C51.518000000000015 50.73900000000002 52.518000000000015 51.139000000000024 52.808000000000014 51.09000000000003C52.93800000000002 51.06900000000003 53.03800000000001 50.92900000000003 53.09800000000001 50.67000000000003C53.228000000000016 50.10000000000004 53.28800000000001 47.529000000000025 53.28800000000001 42.95000000000003C53.28800000000001 39.62000000000003 53.20800000000001 37.51000000000003 53.07800000000001 36.63900000000004C53.00800000000001 36.22900000000004 52.86800000000001 35.88900000000004 52.63800000000001 35.63900000000004C52.39700000000001 35.38000000000004 51.46700000000001 34.789000000000044 49.82800000000001 33.84900000000003V32.22900000000003C51.43700000000001 33.08900000000003 53.28800000000001 34.04900000000002 55.39600000000001 35.09900000000003C57.83700000000001 36.31900000000003 60.08700000000001 37.419000000000025 62.16700000000001 38.39900000000003V40.10900000000002C60.64600000000001 39.40900000000002 59.67700000000001 39.04900000000002 59.287000000000006 39.04900000000002C59.11900000000001 39.04000000000002 59.00000000000001 39.170000000000016 58.93900000000001 39.40000000000002z" />
    <glyph glyph-name="SQUARE WITH UPPER LEFT TO LOWER RIGHT FILL"
      unicode="&#x25A7;"
      horiz-adv-x="99" d=" M45 46.28L20.25 58.379000000000005V68.75L45 56.638000000000005V46.28zM18 59.75L8.639 64.44V74.78L18 70.1V59.75zM16.289 63.46L14.018 67.11L16.12 68.38L15.599 69.23L13.493 67.95100000000001L11.211 71.61000000000001L10.36 71.081L12.631 67.44L10.52 66.161L11.042 65.301L13.161 66.59100000000001L15.439 62.931L16.289 63.46zM32.75 35.66V35.5L45.16 29.33V42.83L32.75 49V35.66zM45.16 26.518L8.628999999999998 44.78V41.358999999999995L45.16 23.089V26.518zM81 76.5V22.5L54 9L0 36V90L27 103.5L81 76.5zM51 61.150000000000006L3 85.15V37.85000000000001L51 13.850000000000009V61.150000000000006zM75.99 75.65L26.999999999999993 100.15L3.449999999999992 88.28L52.44999999999999 63.78000000000001L75.98999999999998 75.65zM29.88099999999998 48.16000000000001L8.62899999999998 58.780000000000015V55.43000000000002L29.88099999999998 44.81000000000002V48.16000000000001zM29.88099999999998 41.16000000000001L8.62899999999998 51.780000000000015V48.43000000000002L29.88099999999998 37.81000000000002V41.16000000000001z" />
    <glyph glyph-name="SQUARE WITH UPPER RIGHT TO LOWER LEFT FILL"
      unicode="&#x25A8;"
      horiz-adv-x="99" d=" M81 89.969V90L54 103.5L0 76.5V22.5L27 9L27.21 9.099999999999994V9.079999999999998L81.21000000000001 36.08V90.08L81.00000000000001 89.969zM27.000000000000014 12.349999999999994L3.000000000000014 24.349999999999994V73.35L27.000000000000014 61.349999999999994V12.349999999999994zM76.37 38.889999999999986L31.840000000000003 16.61999999999999V44.29999999999998L76.37 66.56999999999998V38.889999999999986zM31.840000000000003 49.65999999999998V60.01799999999999L62.56 75.38V65.00899999999999L31.840000000000003 49.65999999999998zM76.37 71.92999999999998L67.009 67.23999999999998V77.58999999999997L76.37 82.26999999999998V71.92999999999998zM28.710000000000008 63.84999999999998L5.059000000000008 75.67999999999998L54.000000000000014 100.14999999999998L77.65 88.31999999999998L28.710000000000008 63.84999999999998zM69.57000000000001 70.41999999999999L71.85000000000001 74.07999999999998L73.96900000000001 72.78999999999999L74.49000000000001 73.64999999999998L72.38000000000001 74.92999999999998L74.65 78.57L73.80000000000001 79.1L71.51800000000001 75.43999999999998L69.41000000000001 76.71899999999998L68.89000000000001 75.86999999999998L70.99000000000001 74.59999999999998L68.72000000000001 70.94999999999999zM71.52000000000001 41.95999999999998V45.309999999999974L34.99000000000001 27.047999999999973V23.61899999999997L71.52000000000001 41.88899999999997zM71.52000000000001 59.238999999999976L50.269000000000005 48.61899999999997V45.26899999999998L71.52000000000001 55.88899999999998zM71.52000000000001 48.88899999999998L50.269000000000005 38.26899999999998V34.91899999999998L71.52000000000001 45.53899999999999zM47.400000000000006 29.418999999999983V42.758999999999986L34.99000000000001 36.588999999999984V23.088999999999984L47.400000000000006 29.258999999999986z" />
    <glyph glyph-name="BLACK TELEPHONE"
      unicode="&#x260E;"
      horiz-adv-x="117" d=" M0 76.5V22.5L27 9L99 45V63L90 67.5L81 63V90L54 103.5L0 76.5zM77.639 88.32L28.708999999999996 63.85L5.069999999999997 75.67L54 100.14L77.639 88.32zM73 40.94L57 32.94V69.049L73 77.049V40.94zM44.67 62.879999999999995L51 66.04899999999999V55.69L44.67 52.53V62.88zM51 52.33V43.650000000000006L44.67 40.49000000000001V49.170000000000016L51 52.33000000000001zM51 29.940000000000012L44.67 26.77000000000001V37.140000000000015L51 40.30000000000001V29.940000000000012zM35 32.30000000000001L41.67 35.640000000000015V25.27000000000001L35 21.940000000000012V32.30000000000001zM35 44.33000000000001L41.67 47.670000000000016V38.99000000000001L35 35.650000000000006V44.33000000000001zM35 47.69000000000001V58.04900000000001L41.67 61.38000000000001V51.030000000000015L35 47.69000000000001zM81 59.650000000000006L89.99 64.14000000000001L95.61999999999999 61.31L80.99999999999999 54V59.650000000000006zM2.999999999999986 73.35000000000001L26.999999999999986 61.35000000000001V12.350000000000009L2.999999999999986 24.35000000000001V73.35000000000001z" />
    <glyph glyph-name="HAMMER AND PICK"
      unicode="&#x2692;"
      horiz-adv-x="126" d=" M0 76.5V22.5L27 9L54 22.5V40.5L108 67.5V85.5L99 90L54 67.5V76.5L27 90L0 76.5zM27 86.65L50.646 74.82300000000001L27 63L3.353999999999999 74.822L27 86.65zM99 86.65L104.65 83.82000000000001L54.00000000000001 58.5V64.15L99 86.65zM3 71.65L27 59.650000000000006V12.350000000000009L3 24.35000000000001V71.65z" />
    <glyph glyph-name="GEAR WITHOUT HUB"
      unicode="&#x26ED;"
      horiz-adv-x="126" d=" M36 117V81L0 99V27L36 9L108 45V81L36 117zM36 12.379999999999995L27 16.86999999999999V35.999999999999986L9 44.999999999999986V25.859999999999985L3 28.859999999999985V94.14999999999999L36 77.66999999999999V12.379999999999981zM39 112.14999999999998L72 95.68999999999997V62.99999999999998L39 79.49999999999997V112.14999999999998zM46 27.49999999999997V36.49999999999997L62 44.49999999999997L62.03 35.49999999999997L46 27.49999999999997zM80 44.49999999999997L64 36.49999999999997V45.49999999999997L80 53.49999999999997V44.49999999999997zM98 53.49999999999997L82 45.49999999999997V54.49999999999997L98 62.49999999999997V53.49999999999997z" />
    <glyph glyph-name="ENVELOPE"
      unicode="&#x2709;"
      horiz-adv-x="99" d=" M54 103.5L0 76.5V22.5L27 9L81 36V90L54 103.5zM54 100.15L77.8 88.4L28.879999999999995 63.94L5.058999999999994 75.68L54 100.15zM3 24.359999999999985V73.35L27 61.52999999999999V12.499999999999986L3 24.359999999999985zM77.27 68.73899999999998L67.21 54.33999999999999L77.27 48.39999999999999V43.75999999999999L64.91 51.05999999999999L56.04899999999999 38.379999999999995L48.04899999999999 43.55L30.299999999999994 18.929999999999993V25.760999999999996L44.69 45.730999999999995L30.299999999999997 55.028999999999996V59.78999999999999L54.979 43.829999999999984L77.27 75.71899999999998V68.73899999999998z" />
    <glyph glyph-name="LOWER RIGHT PENCIL"
      unicode="&#x270E;"
      horiz-adv-x="126" d=" M54 76.5H0L27 36L81 9L108 22.5V49.5L54 76.5zM101.28999999999999 49.5L81 39.351L71.2 44.25L91.5 54.39L101.28999999999999 49.5zM84.77999999999999 57.75L64.49999999999999 47.601L33.70999999999999 63L53.999999999999986 73.15L84.77999999999999 57.75zM18.698999999999984 73.5H47.999999999999986L30.349999999999987 64.67L15.698999999999987 72L18.698999999999987 73.5zM26.999999999999986 41.41L12.349999999999985 63.39V70.32L26.999999999999986 63V41.41zM61.499999999999986 22.101L29.999999999999986 37.851V61.5L61.499999999999986 45.75V22.101zM80.99999999999999 12.350999999999999L67.49999999999999 19.101V42.75L80.99999999999999 36V12.350999999999999z" />
    <glyph glyph-name="PENCIL"
      unicode="&#x270F;"
      horiz-adv-x="126" d=" M0 49.5V22.5L27 9L81 36L108 76.5H54L0 49.5zM18.01 55.14L38.3 45L26.999999999999996 39.351L6.709999999999997 49.5L17.999999999999996 55.14H18.009999999999998zM81 41.41V63L95.65 70.172V63.385999999999996L81 41.41zM88.994 73.5L92.146 71.923L77.654 64.673L60 73.5H88.994zM54 73.15L74.3 63L45.01 48.351L24.72 58.5L54 73.15zM42 19.851V43.5L48 46.5V22.851L42 19.851zM3 48L27 35.995999999999995V12.349999999999994L3 24.36V48z" />
    <glyph glyph-name="UPPER RIGHT PENCIL"
      unicode="&#x2710;"
      horiz-adv-x="72" d=" M27 126L0 112.5V49.129999999999995L27 4L54 49.129999999999995V112.5L27 126zM27 122.64999999999999L48.969 111.66L27 100.67999999999999L5.030000000000001 111.66L27 122.64999999999999zM25.5 98.07999999999998V85.10999999999999L3 96.35999999999999V109.32999999999998L25.5 98.07999999999998zM25.5 78.39999999999999V39.73899999999999L3 50.98899999999999V89.64999999999999L25.5 78.39999999999999zM4.989999999999998 46.638999999999996L25.5 36.37899999999999V21.439999999999998L17.738 25.320999999999998L4.99 46.638999999999996zM36.259 25.319999999999993L28.5 21.438999999999993V36.37899999999999L49.010000000000005 46.639999999999986L36.25900000000001 25.319999999999993zM28.500000000000007 78.39999999999999V85.10999999999999L51.00000000000001 96.35999999999999V89.64999999999999L28.500000000000007 78.39999999999999z" />
    <glyph glyph-name="LONG LEFTWARDS ARROW"
      unicode="&#x27F5;"
      horiz-adv-x="126" d=" M72 99L54 90L36 99L0 45L72 9V27L108 45V81L72 99zM72 95.649L102.98 80.16L72 64.66999999999999V81L57.35 88.31899999999999L72 95.649zM4.3799999999999955 46.16L37.029999999999994 95.13L68.96799999999999 79.16L36.319999999999986 30.188999999999993L4.379999999999985 46.16z" />
    <glyph glyph-name="LONG RIGHTWARDS ARROW"
      unicode="&#x27F6;"
      horiz-adv-x="135" d=" M45 99V81L9 63V27L45 9L63 18L81 9L117 63L45 99zM48 94.15L79.5 78.4V65.42L48 81.17V94.15zM46.68 78.49000000000001L77.65 63L45.00000000000001 46.67L14.030000000000008 62.160000000000004L46.68000000000001 78.49000000000001zM12.000000000000007 28.849999999999994V59.81999999999999L43.50000000000001 44.06999999999999V13.099999999999994L12.000000000000007 28.849999999999994zM66.35900000000001 19.679999999999993L79.50000000000001 26.25V13.099999999999994L66.35900000000001 19.679999999999993z" />
    <glyph glyph-name="DIGIT THREE"
      unicode="&#x33;"
      horiz-adv-x="90" d=" M36 117.014L0 99.014L36 81.014L0 63.013999999999996L36 45.013999999999996L0 27.013999999999996L36 9.013999999999996L72 27.013999999999996V63.013999999999996L39.35 46.69399999999999L6.710000000000001 63.01399999999999L39.35 79.33399999999999L72 63.01399999999999V99.01399999999998L36 117.01399999999998zM39.36 43.333999999999975L68.65 28.69299999999997L36.00000000000001 12.363999999999976L6.710000000000008 27.01399999999998L39.35000000000001 43.333999999999975H39.36000000000001zM39.35000000000001 82.69399999999997L6.710000000000008 99.01399999999998L36.00000000000001 113.66399999999997L65.30000000000001 99.01399999999998L68.65100000000001 97.33399999999997L39.35000000000001 82.69399999999997z" />
    <glyph glyph-name="DIGIT FOUR"
      unicode="&#x34;"
      horiz-adv-x="90" d=" M72 99.014L36 117.014L0 45.013999999999996L36 27.013999999999996L45 31.513999999999996L72 18.013999999999996V99.014zM4.030000000000001 46.354L37.34 112.983L67.96900000000001 97.673L34.66000000000001 31.043999999999997L4.030000000000012 46.354zM38.24000000000001 31.483000000000004L38.25900000000001 31.531000000000006L50.400000000000006 55.813L68.64500000000001 46.691L38.24000000000001 31.483000000000004zM69.00000000000001 22.864000000000004L48.350000000000016 33.184V33.18899999999999L69.00000000000001 43.494V22.864000000000004zM90.00000000000001 54.01400000000001L75.00000000000001 46.244000000000014V61.51400000000001L90.00000000000001 54.01400000000001z" />
    <glyph glyph-name="DIGIT FIVE"
      unicode="&#x35;"
      horiz-adv-x="90" d=" M36 72.01400000000001V81.01400000000001L72 99.01400000000001L36 117.01400000000001L0 99.01400000000001V72.01400000000001L36 54.01400000000001V68.65400000000001L65.3 54.01400000000001H36V45.01400000000001L0 27.01400000000001L36 9.01400000000001L72 27.01400000000001V54.01400000000001L36 72.01400000000001zM3 73.864V97.16400000000002L36 113.66400000000002L65.28999999999999 99.01400000000001L32.99999999999999 82.864V58.864000000000004L2.999999999999993 73.864zM35.99999999999999 12.364000000000004L6.709999999999994 27.01400000000001L39.349999999999994 43.334L68.64999999999999 28.694000000000003L35.99999999999999 12.364000000000004z" />
    <glyph glyph-name="DIGIT SIX"
      unicode="&#x36;"
      horiz-adv-x="90" d=" M36 81.01400000000001L72 99.01400000000001L36 117.01400000000001L0 99.01400000000001V27.01400000000001L36 9.01400000000001L72 27.01400000000001V63.01400000000001L36 81.01400000000001zM3 97.16400000000002L36 113.66400000000002L65.28999999999999 99.01400000000001L32.99999999999999 82.864V13.864000000000004L2.999999999999993 28.864000000000004V97.164zM35.99999999999999 77.664L68.64599999999999 61.337L35.999999999999986 45.01400000000001L68.64599999999999 28.691000000000003L35.999999999999986 12.364000000000004V77.664z" />
    <glyph glyph-name="DIGIT SEVEN"
      unicode="&#x37;"
      horiz-adv-x="90" d=" M36 117.014L0 99.014L24 87.014L0 27.013999999999996L36 9.013999999999996L72 99.014L36 117.014zM39.35 82.69399999999999L6.710000000000001 99.014L36 113.664L68.646 97.33699999999999L39.35 82.69399999999999z" />
    <glyph glyph-name="DIGIT EIGHT"
      unicode="&#x38;"
      horiz-adv-x="90" d=" M36 117.014L0 99.014V27.013999999999996L36 9.013999999999996L72 27.013999999999996V99.014L36 117.014zM3 28.86399999999999V97.16399999999999L36 113.66399999999999L66.969 98.17399999999998L32.99999999999999 81.18399999999998V13.86399999999999L2.999999999999993 28.86399999999999zM35.99999999999999 46.684V79.334L68.64999999999999 63.013999999999996L35.99999999999999 46.684zM35.99999999999999 43.334L66.969 27.854L35.99999999999999 12.364000000000004V43.334z" />
    <glyph glyph-name="DIGIT NINE"
      unicode="&#x39;"
      horiz-adv-x="90" d=" M36 117.014L0 99.014V63.013999999999996L36 45.013999999999996L0 27.013999999999996L36 9.013999999999996L72 27.013999999999996V63.013999999999996L39 46.513999999999996V79.556L72 63.013999999999996V99.014L36 117.014zM39.35 43.33399999999999L68.646 28.69099999999999L36 12.36399999999999L6.699000000000002 27.013999999999996L39.35000000000001 43.334zM36.00000000000001 81.01400000000001V48.364000000000004L3.000000000000007 64.864V97.164L36.00000000000001 113.664L68.65 97.334L36.00000000000001 81.01400000000001z" />
    <glyph glyph-name="LATIN SMALL LETTER A"
      unicode="&#x61;"
      horiz-adv-x="90" d=" M36 45L72 63V27L36 45zM72 99V63L36 81V9L0 27V99L36 117L72 99zM65.29 99L36.00000000000001 113.65L3.000000000000007 97.15V28.849999999999994L33.00000000000001 13.849999999999994V82.85L65.29 99z" />
    <glyph glyph-name="LATIN SMALL LETTER B"
      unicode="&#x62;"
      horiz-adv-x="90" d=" M54 72V90L18 108L0 99V27L36 9L72 27V63L54 72zM68.65 61.31999999999999L39.00000000000001 46.479V61.5L54.00000000000001 54V68.65L68.65 61.31999999999999zM36.00000000000001 12.349999999999994L3.000000000000007 28.849999999999994V97.14999999999999L18.000000000000007 104.64999999999999L47.290000000000006 90L36.00000000000001 84.35V12.349999999999994zM65.30000000000001 27L39.000000000000014 40.150000000000006V43.542L68.65 28.680000000000007L65.30000000000001 27z" />
    <glyph glyph-name="LATIN SMALL LETTER C"
      unicode="&#x63;"
      horiz-adv-x="90" d=" M36 81L72 99L36 117L0 99V27L36 9L72 27L36 45V81zM33 13.849999999999994L3.3500000000000014 28.669999999999987L3.0000000000000013 28.849999999999994V97.14999999999999L36 113.64999999999999L65.28999999999999 99L32.99999999999999 82.85V13.849999999999994z" />
    <glyph glyph-name="LATIN SMALL LETTER D"
      unicode="&#x64;"
      horiz-adv-x="90" d=" M18 108L0 99V27L36 9L72 27V81L18 108zM36 12.349999999999994L3 28.849999999999994V97.14999999999999L18 104.64999999999999L50.65 88.32L36 81V12.349999999999994zM65.3 27L39 40.150000000000006V43.5L68.65 28.680000000000007L65.30000000000001 27z" />
    <glyph glyph-name="LATIN SMALL LETTER E"
      unicode="&#x65;"
      horiz-adv-x="90" d=" M72 63L36 45V81L72 63zM3 28.849999999999994V97.14999999999999L35.99 113.64999999999999L65.29 99L36.00000000000001 84.35V81L72 99L36 117L0 99V27L36 9L72 27L36 45V12.349999999999994L3 28.849999999999994z" />
    <glyph glyph-name="LATIN CAPITAL LETTER A"
      unicode="&#x41;"
      horiz-adv-x="90" d=" M36 45L72 63V27L36 45zM72 99V63L36 81V9L0 27V99L36 117L72 99zM65.29 99L36.00000000000001 113.65L3.000000000000007 97.15V28.849999999999994L33.00000000000001 13.849999999999994V82.85L65.29 99z" />
    <glyph glyph-name="LATIN CAPITAL LETTER B"
      unicode="&#x42;"
      horiz-adv-x="90" d=" M54 72V90L18 108L0 99V27L36 9L72 27V63L54 72zM68.65 61.31999999999999L39.00000000000001 46.479V61.5L54.00000000000001 54V68.65L68.65 61.31999999999999zM36.00000000000001 12.349999999999994L3.000000000000007 28.849999999999994V97.14999999999999L18.000000000000007 104.64999999999999L47.290000000000006 90L36.00000000000001 84.35V12.349999999999994zM65.30000000000001 27L39.000000000000014 40.150000000000006V43.542L68.65 28.680000000000007L65.30000000000001 27z" />
    <glyph glyph-name="LATIN CAPITAL LETTER C"
      unicode="&#x43;"
      horiz-adv-x="90" d=" M36 81L72 99L36 117L0 99V27L36 9L72 27L36 45V81zM33 13.849999999999994L3.3500000000000014 28.669999999999987L3.0000000000000013 28.849999999999994V97.14999999999999L36 113.64999999999999L65.28999999999999 99L32.99999999999999 82.85V13.849999999999994z" />
    <glyph glyph-name="LATIN CAPITAL LETTER D"
      unicode="&#x44;"
      horiz-adv-x="90" d=" M18 108L0 99V27L36 9L72 27V81L18 108zM36 12.349999999999994L3 28.849999999999994V97.14999999999999L18 104.64999999999999L50.65 88.32L36 81V12.349999999999994zM65.3 27L39 40.150000000000006V43.5L68.65 28.680000000000007L65.30000000000001 27z" />
    <glyph glyph-name="LATIN CAPITAL LETTER E"
      unicode="&#x45;"
      horiz-adv-x="90" d=" M72 63L36 45V81L72 63zM3 28.849999999999994V97.14999999999999L35.99 113.64999999999999L65.29 99L36.00000000000001 84.35V81L72 99L36 117L0 99V27L36 9L72 27L36 45V12.349999999999994L3 28.849999999999994z" />
    <glyph glyph-name="LATIN CAPITAL LETTER F"
      unicode="&#x46;"
      horiz-adv-x="90" d=" M36 81L72 99L36 117L0 99V27L36 9V54L54 63L36 72V81zM33 13.849999999999994L3 28.849999999999994V97.14999999999999L36 113.64999999999999L65.28999999999999 99L32.99999999999999 82.85V13.849999999999994z" />
    <glyph glyph-name="LATIN SMALL LETTER F"
      unicode="&#x66;"
      horiz-adv-x="90" d=" M36 81L72 99L36 117L0 99V27L36 9V54L54 63L36 72V81zM33 13.849999999999994L3 28.849999999999994V97.14999999999999L36 113.64999999999999L65.28999999999999 99L32.99999999999999 82.85V13.849999999999994z" />
    <glyph glyph-name="LATIN CAPITAL LETTER G"
      unicode="&#x47;"
      horiz-adv-x="90" d=" M36 81L72 99L36 117L0 99V27L36 9L72 27V63L36 81zM33 82.85V13.849999999999994L3 28.849999999999994V97.14999999999999L36 113.64999999999999L65.28999999999999 99L32.99999999999999 82.85zM65.29999999999998 27L35.999999999999986 41.650000000000006V45L68.64999999999998 28.680000000000007L65.29999999999998 27zM53.999999999999986 54L35.999999999999986 63V77.65L68.64999999999998 61.31999999999999L53.99999999999998 54z" />
    <glyph glyph-name="LATIN SMALL LETTER G"
      unicode="&#x67;"
      horiz-adv-x="90" d=" M36 81L72 99L36 117L0 99V27L36 9L72 27V63L36 81zM33 82.85V13.849999999999994L3 28.849999999999994V97.14999999999999L36 113.64999999999999L65.28999999999999 99L32.99999999999999 82.85zM65.29999999999998 27L35.999999999999986 41.650000000000006V45L68.64999999999998 28.680000000000007L65.29999999999998 27zM53.999999999999986 54L35.999999999999986 63V77.65L68.64999999999998 61.31999999999999L53.99999999999998 54z" />
    <glyph glyph-name="LATIN CAPITAL LETTER H"
      unicode="&#x48;"
      horiz-adv-x="90" d=" M33 118.5V82.5L0 99V27L36 9V77.65L68.65 61.32000000000001L36.00000000000001 45L72 27V99L33 118.5zM33 13.849999999999994L3 28.849999999999994V94.14999999999999L33 79.14999999999999V13.849999999999994zM69 64.5L36 81V113.64999999999999L69 97.14999999999999V64.5z" />
    <glyph glyph-name="LATIN SMALL LETTER H"
      unicode="&#x68;"
      horiz-adv-x="90" d=" M33 118.5V82.5L0 99V27L36 9V77.65L68.65 61.32000000000001L36.00000000000001 45L72 27V99L33 118.5zM33 13.849999999999994L3 28.849999999999994V94.14999999999999L33 79.14999999999999V13.849999999999994zM69 64.5L36 81V113.64999999999999L69 97.14999999999999V64.5z" />
    <glyph glyph-name="LATIN CAPITAL LETTER I"
      unicode="&#x49;"
      horiz-adv-x="54" d=" M3 85.144L33 70.145V13.852999999999994L3 28.852999999999994V85.14399999999999M0 89.99799999999999V26.99799999999999L36 8.999999999999986V71.99999999999999L0 89.99799999999999zM3 112.142L33 97.14399999999999V85.85199999999999L3 100.85V112.14199999999998M0 116.99599999999998V98.99599999999998L36 80.99799999999999V98.99799999999999L0 116.996z" />
    <glyph glyph-name="LATIN SMALL LETTER I"
      unicode="&#x69;"
      horiz-adv-x="54" d=" M3 85.144L33 70.145V13.852999999999994L3 28.852999999999994V85.14399999999999M0 89.99799999999999V26.99799999999999L36 8.999999999999986V71.99999999999999L0 89.99799999999999zM3 112.142L33 97.14399999999999V85.85199999999999L3 100.85V112.14199999999998M0 116.99599999999998V98.99599999999998L36 80.99799999999999V98.99799999999999L0 116.996z" />
    <glyph glyph-name="LATIN CAPITAL LETTER I WITH DIAERESIS"
      unicode="&#xCF;"
      horiz-adv-x="54" d=" M3 85.144L33 70.145V13.852999999999994L3 28.85199999999999V85.14399999999999M0 89.99799999999999V26.99799999999999L36 8.999999999999986V71.99999999999999L0 89.99799999999999zM3 112.142L12 107.64299999999999V96.351L3 100.85V112.142M0 116.996V98.996L15 91.49699999999999V109.49699999999999L0 116.996zM24 101.643L33 97.14399999999999V85.852L24 90.351V101.643M21 106.497V88.497L36 80.99799999999999V98.99799999999999L21 106.497z" />
    <glyph glyph-name="LATIN SMALL LETTER I WITH DIAERESIS"
      unicode="&#xEF;"
      horiz-adv-x="54" d=" M3 85.144L33 70.145V13.852999999999994L3 28.85199999999999V85.14399999999999M0 89.99799999999999V26.99799999999999L36 8.999999999999986V71.99999999999999L0 89.99799999999999zM3 112.142L12 107.64299999999999V96.351L3 100.85V112.142M0 116.996V98.996L15 91.49699999999999V109.49699999999999L0 116.996zM24 101.643L33 97.14399999999999V85.852L24 90.351V101.643M21 106.497V88.497L36 80.99799999999999V98.99799999999999L21 106.497z" />
    <glyph glyph-name="LATIN CAPITAL LETTER J"
      unicode="&#x4A;"
      horiz-adv-x="72" d=" M18 108V45L0 54V27L36 9L54 18V90L18 108zM3 28.849999999999994V49.14999999999999L36 32.64999999999999V12.349999999999994L3 28.849999999999994zM50.646 19.676999999999992L39 13.849999999999994V25.5L50.646 19.676999999999992zM51 22.849999999999994L39 28.849999999999994V34.5L21 43.5V103.15L51 88.15V22.849999999999994z" />
    <glyph glyph-name="LATIN SMALL LETTER J"
      unicode="&#x6A;"
      horiz-adv-x="72" d=" M18 108V45L0 54V27L36 9L54 18V90L18 108zM3 28.849999999999994V49.14999999999999L36 32.64999999999999V12.349999999999994L3 28.849999999999994zM50.646 19.676999999999992L39 13.849999999999994V25.5L50.646 19.676999999999992zM51 22.849999999999994L39 28.849999999999994V34.5L21 43.5V103.15L51 88.15V22.849999999999994z" />
    <glyph glyph-name="LATIN CAPITAL LETTER K"
      unicode="&#x4B;"
      horiz-adv-x="90" d=" M54 54L36 45V63L54 54L72 99L36 117L24 87L0 99V27L36 9V41.650000000000006L39.35 43.32000000000001L72 27L54 54zM37.57 112.86L68.19 97.55L52.43 58.14H52.42L36 66.35V81L26.689999999999998 85.65L37.57 112.86zM33 13.849999999999994L3 28.849999999999994V94.14999999999999L33 79.14999999999999V13.849999999999994z" />
    <glyph glyph-name="LATIN SMALL LETTER K"
      unicode="&#x6B;"
      horiz-adv-x="90" d=" M54 54L36 45V63L54 54L72 99L36 117L24 87L0 99V27L36 9V41.650000000000006L39.35 43.32000000000001L72 27L54 54zM37.57 112.86L68.19 97.55L52.43 58.14H52.42L36 66.35V81L26.689999999999998 85.65L37.57 112.86zM33 13.849999999999994L3 28.849999999999994V94.14999999999999L33 79.14999999999999V13.849999999999994z" />
    <glyph glyph-name="LATIN CAPITAL LETTER L"
      unicode="&#x4C;"
      horiz-adv-x="90" d=" M36 45V99L0 117V27L36 9L72 27L36 45zM3 28.849999999999994V112.14999999999999L33 97.14999999999999V13.849999999999994L3 28.849999999999994zM36 41.64999999999999L65.28999999999999 26.999999999999986L35.99999999999999 12.34999999999998V41.64999999999998z" />
    <glyph glyph-name="LATIN SMALL LETTER L"
      unicode="&#x6C;"
      horiz-adv-x="90" d=" M36 45V99L0 117V27L36 9L72 27L36 45zM3 28.849999999999994V112.14999999999999L33 97.14999999999999V13.849999999999994L3 28.849999999999994zM36 41.64999999999999L65.28999999999999 26.999999999999986L35.99999999999999 12.34999999999998V41.64999999999998z" />
    <glyph glyph-name="LATIN CAPITAL LETTER M"
      unicode="&#x4D;"
      horiz-adv-x="90" d=" M36 117L21.6 88.2L0 99V27L36 9V45L72 27V99L36 117zM3 28.849999999999994V94.14999999999999L33 79.14999999999999V13.849999999999994L3 28.849999999999994zM54 62.99999999999999V59.64999999999999L36 68.64999999999999V72L54 62.99999999999999L36 81L24.29 86.85999999999999L37.35 112.97L70.66 96.32L54 62.99999999999999z" />
    <glyph glyph-name="LATIN SMALL LETTER M"
      unicode="&#x6D;"
      horiz-adv-x="90" d=" M36 117L21.6 88.2L0 99V27L36 9V45L72 27V99L36 117zM3 28.849999999999994V94.14999999999999L33 79.14999999999999V13.849999999999994L3 28.849999999999994zM54 62.99999999999999V59.64999999999999L36 68.64999999999999V72L54 62.99999999999999L36 81L24.29 86.85999999999999L37.35 112.97L70.66 96.32L54 62.99999999999999z" />
    <glyph glyph-name="LATIN CAPITAL LETTER N"
      unicode="&#x4E;"
      horiz-adv-x="90" d=" M36 117V81L0 99V27L36 9V45L72 27V99L36 117zM33 13.849999999999994L3 28.849999999999994V94.14999999999999L3.35 93.97L33 79.14999999999999V13.849999999999994zM39 76.5V112.14999999999999L69 97.14999999999999V31.849999999999994L68.65 32.019999999999996L39.00000000000001 76.5z" />
    <glyph glyph-name="LATIN SMALL LETTER N"
      unicode="&#x6E;"
      horiz-adv-x="90" d=" M36 117V81L0 99V27L36 9V45L72 27V99L36 117zM33 13.849999999999994L3 28.849999999999994V94.14999999999999L3.35 93.97L33 79.14999999999999V13.849999999999994zM39 76.5V112.14999999999999L69 97.14999999999999V31.849999999999994L68.65 32.019999999999996L39.00000000000001 76.5z" />
    <glyph glyph-name="LATIN CAPITAL LETTER O"
      unicode="&#x4F;"
      horiz-adv-x="90" d=" M36 117L0 99V27L36 9L72 27V99L36 117zM39 40.150000000000006V43.5L68.646 28.676999999999992L65.3 26.999999999999986L39 40.14999999999999zM3 28.849999999999994V97.14999999999999L36 113.64999999999999L68.646 97.323L36 80.99999999999999V12.34999999999998L3 28.84999999999998z" />
    <glyph glyph-name="LATIN SMALL LETTER O"
      unicode="&#x6F;"
      horiz-adv-x="90" d=" M36 117L0 99V27L36 9L72 27V99L36 117zM39 40.150000000000006V43.5L68.646 28.676999999999992L65.3 26.999999999999986L39 40.14999999999999zM3 28.849999999999994V97.14999999999999L36 113.64999999999999L68.646 97.323L36 80.99999999999999V12.34999999999998L3 28.84999999999998z" />
    <glyph glyph-name="LATIN CAPITAL LETTER P"
      unicode="&#x50;"
      horiz-adv-x="90" d=" M36 117L0 99V27L36 9V45L72 63V99L36 117zM36 77.65L39.35 79.32L68.646 64.67699999999999L65.29 63L36.00000000000001 77.65zM33.00000000000001 13.849999999999994L3.000000000000007 28.849999999999994V97.14999999999999L36.00000000000001 113.64999999999999L68.64600000000002 97.323L33.000000000000014 79.49999999999999V13.84999999999998z" />
    <glyph glyph-name="LATIN SMALL LETTER P"
      unicode="&#x70;"
      horiz-adv-x="90" d=" M36 117L0 99V27L36 9V45L72 63V99L36 117zM36 77.65L39.35 79.32L68.646 64.67699999999999L65.29 63L36.00000000000001 77.65zM33.00000000000001 13.849999999999994L3.000000000000007 28.849999999999994V97.14999999999999L36.00000000000001 113.64999999999999L68.64600000000002 97.323L33.000000000000014 79.49999999999999V13.84999999999998z" />
    <glyph glyph-name="HISO STANDING PEN"
      unicode="&#xE001;"
      horiz-adv-x="72" d=" M27 126L0 112.5V49.129999999999995L27 4L54 49.129999999999995V112.5L27 126zM27 122.64999999999999L48.969 111.66L27 100.67999999999999L5.030000000000001 111.66L27 122.64999999999999zM25.5 98.07999999999998V85.10999999999999L3 96.35999999999999V109.32999999999998L25.5 98.07999999999998zM25.5 78.39999999999999V39.73899999999999L3 50.98899999999999V89.64999999999999L25.5 78.39999999999999zM4.989999999999998 46.639999999999986L25.5 36.37899999999999V21.439999999999998L17.738 25.320999999999998L4.99 46.64zM36.259 25.319999999999993L28.5 21.438999999999993V36.37899999999999L49.010000000000005 46.639999999999986L36.25900000000001 25.319999999999993zM28.500000000000007 78.39999999999999V85.10999999999999L51.00000000000001 96.35999999999999V89.64999999999999L28.500000000000007 78.39999999999999z" />
    <glyph glyph-name="HISO INFO"
      unicode="&#xE002;"
      horiz-adv-x="99" d=" M54 103.642L0 76.642V22.641999999999996L27 9.141999999999996L81 36.141999999999996V90.142L54 103.642zM3 24.501999999999995V73.452L27 61.343V12.403000000000006L3 24.50200000000001zM56 30.47200000000001C45.35 24.962000000000003 36.049 29.72200000000001 36.32 40.31200000000001C36.629 52.45100000000001 45.259 64.27200000000002 56 69.83200000000001C66.64 75.34300000000002 75.95 70.58200000000001 75.68 59.992000000000004C75.37 47.852000000000004 66.74000000000001 36.031000000000006 56.00000000000001 30.47200000000001zM28.549000000000007 63.92200000000001L5.010000000000005 75.792L54.00000000000001 100.292L77.549 88.42200000000001L28.549000000000007 63.92200000000001zM53.49000000000001 60.182000000000016C54.13800000000001 59.85200000000002 54.92900000000001 59.91200000000002 55.84000000000001 60.372000000000014C56.77900000000001 60.84300000000002 57.57000000000001 61.56200000000001 58.21000000000001 62.542000000000016C58.86100000000001 63.52200000000001 59.18000000000001 64.48200000000001 59.18000000000001 65.412C59.18000000000001 66.33200000000002 58.86200000000001 66.96200000000002 58.21000000000001 67.29200000000002C57.57000000000001 67.63100000000001 56.77900000000001 67.56300000000002 55.84000000000001 67.10200000000002C54.92000000000001 66.63100000000003 54.119000000000014 65.90200000000002 53.47900000000001 64.92200000000003C52.83100000000001 63.94300000000002 52.500000000000014 62.99200000000002 52.500000000000014 62.07200000000002C52.500000000000014 61.14200000000001 52.83000000000001 60.512000000000015 53.490000000000016 60.182000000000016zM58.939000000000014 39.542000000000016C58.83900000000001 39.94200000000002 58.76900000000001 41.42200000000001 58.76900000000001 43.96200000000002V51.41200000000002C58.76900000000001 53.41200000000002 58.86100000000001 55.59300000000002 59.030000000000015 57.95200000000003L58.509000000000015 57.98300000000003C57.179000000000016 56.78200000000004 55.94900000000001 55.77300000000004 54.829000000000015 54.95200000000003C53.698000000000015 54.12200000000003 52.039000000000016 53.053000000000026 49.829000000000015 51.71100000000003V50.05200000000002C51.518000000000015 50.881000000000014 52.518000000000015 51.28100000000002 52.808000000000014 51.23200000000003C52.93800000000002 51.21100000000003 53.03800000000001 51.071000000000026 53.09800000000001 50.812000000000026C53.228000000000016 50.24200000000003 53.28800000000001 47.67100000000002 53.28800000000001 43.09200000000003C53.28800000000001 39.76200000000003 53.20800000000001 37.65200000000003 53.07800000000001 36.781000000000034C53.00800000000001 36.37100000000004 52.86800000000001 36.031000000000034 52.63800000000001 35.781000000000034C52.39700000000001 35.522000000000034 51.46700000000001 34.93100000000004 49.82800000000001 33.99100000000003V32.37100000000002C51.43700000000001 33.23100000000002 53.28800000000001 34.19100000000002 55.39600000000001 35.24100000000003C57.83700000000001 36.46100000000003 60.08700000000001 37.56100000000002 62.16700000000001 38.541000000000025V40.25100000000002C60.64600000000001 39.551000000000016 59.67700000000001 39.19100000000002 59.287000000000006 39.19100000000002C59.11900000000001 39.182000000000016 59.00000000000001 39.31200000000001 58.93900000000001 39.542000000000016z" />
    <glyph glyph-name="HISO INFO REVERSED"
      unicode="&#xE003;"
      horiz-adv-x="99" d=" M25 30.33C35.65 24.819999999999993 44.951 29.58 44.68 40.17C44.371 52.31 35.74 64.13 25 69.69C14.359 75.201 5.0489999999999995 70.44 5.32 59.849999999999994C5.6290000000000004 47.709999999999994 14.26 35.888999999999996 25 30.33zM22.48 67.28999999999999C23.119 67.64 23.919 67.57 24.839 67.12C25.778 66.64 26.569 65.91999999999999 27.209 64.951C27.858999999999998 63.97 28.179 63.021 28.179 62.101C28.179 61.17099999999999 27.86 60.531000000000006 27.209 60.20099999999999C26.569 59.851 25.778 59.92099999999999 24.839 60.39099999999999C23.929 60.840999999999994 23.137999999999998 61.57199999999999 22.488999999999997 62.54099999999999C21.828999999999997 63.53099999999999 21.499 64.49099999999999 21.499 65.42099999999999C21.5 66.33999999999999 21.83 66.96 22.48 67.28999999999999zM18.830000000000002 40.001999999999995C20.469 39.30799999999999 21.398000000000003 38.97099999999999 21.64 38.989999999999995C21.87 39.010999999999996 22.01 39.21199999999999 22.080000000000002 39.55199999999999C22.21 40.29299999999999 22.290000000000003 42.32299999999999 22.290000000000003 45.65299999999999C22.290000000000003 50.231999999999985 22.229000000000003 52.861999999999995 22.1 53.56299999999999C22.040000000000003 53.880999999999986 21.94 54.11999999999999 21.810000000000002 54.27299999999998C21.520000000000003 54.610999999999976 20.520000000000003 55.20699999999998 18.831000000000003 56.06299999999999V57.721999999999994C21.041000000000004 56.858999999999995 22.700000000000003 56.27499999999999 23.831000000000003 55.976C24.951000000000004 55.681 26.181000000000004 55.464 27.511000000000003 55.337L28.032000000000004 54.789C27.863000000000003 52.598 27.771000000000004 50.510000000000005 27.771000000000004 48.510000000000005V41.05900000000001C27.771000000000004 38.519000000000005 27.841000000000005 36.96900000000001 27.941000000000006 36.47000000000001C28.002000000000006 36.18000000000001 28.121000000000006 35.93100000000001 28.292000000000005 35.771000000000015C28.682000000000006 35.38200000000002 29.651000000000003 34.77600000000001 31.172000000000004 33.95900000000002V32.24800000000002C29.092000000000006 33.34400000000002 26.842000000000006 34.48600000000002 24.401000000000003 35.70100000000002C22.293000000000003 36.75400000000002 20.442000000000004 37.639000000000024 18.833000000000006 38.38200000000002V40.002000000000024zM27.003000000000007 103.50000000000003L0.003000000000007219 90.00000000000003V36.00000000000003L54.00300000000001 9.000000000000028L81.00300000000001 22.50000000000003V76.50000000000003L27.003000000000014 103.50000000000003zM51.003000000000014 13.850000000000023L3.0030000000000143 37.85000000000002V85.15000000000002L51.003000000000014 61.15000000000002V13.850000000000023zM52.45300000000002 63.78000000000002L3.453000000000017 88.28000000000003L27.003000000000018 100.15000000000002L75.99300000000002 75.65000000000002L52.453000000000024 63.78000000000002z" />
    <glyph glyph-name="HISO MAIL REVERSED"
      unicode="&#xE004;"
      horiz-adv-x="99" d=" M27 103.5L0 90V36L54 9L81 22.5V76.5L27 103.5zM27 100.15L75.94 75.68L52.119 63.94L3.198999999999998 88.4L26.999999999999996 100.15zM51 25.060000000000002L36.31 45.730000000000004L51 55.089V25.060000000000002zM3 85.15L51 61.150000000000006V59.82000000000001L26.02 43.83000000000001L3 77.14000000000001V85.15zM3 70.049L13.79 54.34000000000002L3 47.79000000000002V70.04900000000002zM3 37.85000000000002V43.130000000000024L16.09 51.06000000000003L24.95 38.380000000000024L32.95 43.54900000000002L51 18.18000000000002V13.850000000000023L3 37.85000000000002z" />
    <glyph glyph-name="HISO WEBSITE"
      unicode="&#xE005;"
      horiz-adv-x="99" d=" M81 89.969V90L54 103.5L0 76.5V22.5L27 9L27.21 9.099999999999994V9.079999999999998L81.21000000000001 36.08V90.08L81.00000000000001 89.969zM27.000000000000014 12.349999999999994L3.000000000000014 24.349999999999994V73.35L27.000000000000014 61.349999999999994V12.349999999999994zM76.37 38.889999999999986L31.840000000000003 16.61999999999999V44.29999999999998L76.37 66.56999999999998V38.889999999999986zM31.840000000000003 49.65999999999998V60.01799999999999L62.56 75.38V65.00899999999999L31.840000000000003 49.65999999999998zM76.37 71.92999999999998L67.009 67.23999999999998V77.58999999999997L76.37 82.26999999999998V71.92999999999998zM28.710000000000008 63.84999999999998L5.059000000000008 75.67999999999998L54.000000000000014 100.14999999999998L77.65 88.31999999999998L28.710000000000008 63.84999999999998zM69.57000000000001 70.41999999999999L71.85000000000001 74.07999999999998L73.96900000000001 72.78999999999999L74.49000000000001 73.64999999999998L72.38000000000001 74.92999999999998L74.65 78.57L73.80000000000001 79.1L71.51800000000001 75.43999999999998L69.41000000000001 76.71899999999998L68.89000000000001 75.86999999999998L70.99000000000001 74.59999999999998L68.72000000000001 70.94999999999999zM71.52000000000001 41.95999999999998V45.309999999999974L34.99000000000001 27.047999999999973V23.61899999999997L71.52000000000001 41.88899999999997zM71.52000000000001 59.238999999999976L50.269000000000005 48.61899999999997V45.26899999999998L71.52000000000001 55.88899999999998zM71.52000000000001 48.88899999999998L50.269000000000005 38.26899999999998V34.91899999999998L71.52000000000001 45.53899999999999zM47.400000000000006 29.418999999999983V42.758999999999986L34.99000000000001 36.588999999999984V23.088999999999984L47.400000000000006 29.258999999999986z" />
    <glyph glyph-name="HISO WEBSITE REVERSED"
      unicode="&#xE006;"
      horiz-adv-x="99" d=" M45 46.28L20.25 58.379000000000005V68.75L45 56.638000000000005V46.28zM18 59.75L8.639 64.44V74.78L18 70.1V59.75zM16.289 63.46L14.018 67.11L16.12 68.38L15.599 69.23L13.493 67.95100000000001L11.211 71.61000000000001L10.36 71.081L12.631 67.44L10.52 66.161L11.042 65.301L13.161 66.59100000000001L15.439 62.931L16.289 63.46zM32.75 35.66V35.5L45.16 29.33V42.83L32.75 49V35.66zM45.16 26.518L8.628999999999998 44.78V41.358999999999995L45.16 23.089V26.518zM81 76.5V22.5L54 9L0 36V90L27 103.5L81 76.5zM51 61.150000000000006L3 85.15V37.85000000000001L51 13.850000000000009V61.150000000000006zM75.99 75.65L26.999999999999993 100.15L3.449999999999992 88.28L52.44999999999999 63.78000000000001L75.98999999999998 75.65zM29.88099999999998 48.16000000000001L8.62899999999998 58.780000000000015V55.43000000000002L29.88099999999998 44.81000000000002V48.16000000000001zM29.88099999999998 41.16000000000001L8.62899999999998 51.780000000000015V48.43000000000002L29.88099999999998 37.81000000000002V41.16000000000001z" />
    <glyph glyph-name="HISO BLOCK"
      unicode="&#xE007;"
      horiz-adv-x="99" d=" M81 89.969V90L54 103.5L0 76.5V22.5L27 9L27.21 9.099999999999994V9.079999999999998L81.21000000000001 36.08V90.08L81.00000000000001 89.969zM27.000000000000014 12.349999999999994L3.000000000000014 24.349999999999994V73.35L27.000000000000014 61.349999999999994V12.349999999999994zM28.710000000000015 63.849999999999994L5.059000000000015 75.67999999999999L54.000000000000014 100.14999999999999L77.65 88.32L28.710000000000008 63.849999999999994z" />
    <glyph glyph-name="HISO BLOCK REVERSED"
      unicode="&#xE008;"
      horiz-adv-x="99" d=" M27 103.5L0 90V36L54 9L81 22.5V76.5L27 103.5zM51 13.849999999999994L3 37.849999999999994V85.14999999999999L51 61.14999999999999V13.849999999999994zM52.45 63.779999999999994L3.450000000000003 88.28L27.000000000000004 100.14999999999999L75.99000000000001 75.64999999999999L52.45000000000001 63.779999999999994z" />
    <glyph glyph-name="HISO PHONE"
      unicode="&#xE009;"
      horiz-adv-x="117" d=" M0.33 76.72999999999999V22.72999999999999L27.33 9.22999999999999L99.33 45.22999999999999V63.22999999999999L90.33 67.72999999999999L81.33 63.22999999999999V90.22999999999999L54.33 103.72999999999999L0.3299999999999983 76.72999999999999zM77.969 88.54999999999998L29.038999999999994 64.07999999999998L5.399999999999995 75.89999999999999L54.33 100.36999999999999L77.969 88.54999999999998zM73.33 41.16999999999999L57.33 33.16999999999999V69.279L73.33 77.279V41.16999999999999zM45 63.109999999999985L51.33 66.27899999999998V55.91999999999999L45 52.75999999999999V63.10999999999999zM51.33 52.55999999999999V43.879999999999995L45 40.72V49.400000000000006L51.33 52.56zM51.33 30.17L45 27V37.370000000000005L51.33 40.53V30.17zM35.33 32.53L42 35.870000000000005V25.5L35.33 22.17V32.53zM35.33 44.56L42 47.900000000000006V39.22L35.33 35.879999999999995V44.56zM35.33 47.92V58.278999999999996L42 61.61V51.260000000000005L35.33 47.92zM81.33 59.879999999999995L90.32 64.37L95.94999999999999 61.53999999999999L81.32999999999998 54.22999999999999V59.879999999999995zM3.329999999999984 73.58L27.329999999999984 61.58V12.579999999999998L3.329999999999984 24.58V73.58z" />
    <glyph glyph-name="HISO PHONE REVERSED"
      unicode="&#xE00A;"
      horiz-adv-x="117" d=" M45 103.5L18 90V58.5L9 63L0 58.5V45L71.79 9.069999999999993V9.099999999999994L72 9L99 22.5V76.5L45 103.5zM69 13.849999999999994L3 46.849999999999994V57.01599999999999L21 47.999999999999986V85.14999999999998L69 61.14999999999998V13.84999999999998zM69.711 63.84999999999998L20.778999999999996 88.31799999999998L44.419999999999995 100.13899999999998L93.35 75.66999999999999L69.711 63.84999999999998zM54.332 52.52999999999997L48 55.68899999999998V66.04899999999998L54.332 62.87999999999998V52.52999999999999zM64 58.04899999999999L57.332 61.379999999999995V51.03L64 47.68900000000001V58.04900000000001zM64 44.33000000000001L57.332 47.670000000000016V38.99000000000001L64 35.649000000000015V44.33000000000001zM54.332 49.170000000000016L48 52.33000000000001V43.650000000000006L54.332 40.491V49.17zM64 32.3L57.332 35.638999999999996V25.26899999999999L64 21.938999999999993V32.3zM54.332 37.138999999999996L48 40.3V29.939999999999998L54.332 26.769999999999996V37.138999999999996zM26 77.05V40.94L42 32.94V69.05L26 77.05z" />
    <glyph glyph-name="HISO RIGHT ARROW"
      unicode="&#xE00B;"
      horiz-adv-x="126" d=" M36 99V81L0 63V27L36 9L54 18L72 9L108 63L36 99zM39 94.15L70.5 78.4V65.42L39 81.17V94.15zM37.68 78.49000000000001L68.65 63L36.00000000000001 46.67L5.030000000000008 62.160000000000004L37.68000000000001 78.49000000000001zM3.000000000000007 28.849999999999994V59.81999999999999L34.50000000000001 44.06999999999999V13.099999999999994L3.000000000000007 28.849999999999994zM57.35900000000001 19.679999999999993L70.50000000000001 26.25V13.099999999999994L57.359000000000016 19.679999999999993z" />
    <glyph glyph-name="HISO RIGHT ARROW REVERSED"
      unicode="&#xE00C;"
      horiz-adv-x="126" d=" M0 81V45L33 28.5V7.5L108 45L72 99L54 90L36 99L0 81zM3 76.15L36 59.650000000000006V75.589L67.619 28.159000000000006L36 12.350000000000009V30.35000000000001L3 46.85000000000001V76.15z" />
    <glyph glyph-name="HISO LEFT ARROW"
      unicode="&#xE00D;"
      horiz-adv-x="126" d=" M72 99L54 90L36 99L0 45L72 9V27L108 45V81L72 99zM72 95.649L102.98 80.16L72 64.66999999999999V81L57.35 88.31899999999999L72 95.649zM4.3799999999999955 46.16L37.029999999999994 95.13L68.96799999999999 79.16L36.319999999999986 30.188999999999993L4.379999999999985 46.16z" />
    <glyph glyph-name="HISO LEFT ARROW REVERSED"
      unicode="&#xE00E;"
      horiz-adv-x="126" d=" M0 63L36 9L54 18L72 9L108 27V63L72 81V99L0 63zM39 25.5L50.64 19.680000000000007L39 13.850000000000009V25.500000000000014zM4.380000000000003 61.84000000000002L36 77.65000000000002V63.00000000000002L72 45.00000000000003V12.350000000000023L36 30.350000000000023V14.410000000000025L4.379999999999999 61.84000000000003z" />
    <glyph glyph-name="HISO PEN"
      unicode="&#xE00F;"
      horiz-adv-x="126" d=" M0 49.5V22.5L27 9L81 36L108 76.5H54L0 49.5zM18.01 55.138999999999996L38.3 45L26.999999999999996 39.349999999999994L6.709999999999997 49.5L17.999999999999996 55.138999999999996H18.009999999999998zM81 41.41V63L95.65 70.172V63.385999999999996L81 41.41zM88.994 73.5L92.146 71.923L77.654 64.673L60 73.5H88.994zM54 73.15L74.3 63L45.01 48.349999999999994L24.72 58.5L54 73.15zM42 19.849999999999994V43.5L48 46.5V22.851L42 19.849999999999994zM3 48L27 35.995999999999995V12.349999999999994L3 24.36V48z" />
    <glyph glyph-name="HISO PEN REVERSED"
      unicode="&#xE010;"
      horiz-adv-x="126" d=" M54 76.5H0L27 36L81 9L108 22.5V49.5L54 76.5zM101.28999999999999 49.5L81 39.351L71.2 44.25L91.5 54.39L101.28999999999999 49.5zM84.77999999999999 57.75L64.49999999999999 47.601L33.70999999999999 63L53.999999999999986 73.15L84.77999999999999 57.75zM18.698999999999984 73.5H47.999999999999986L30.349999999999987 64.67L15.698999999999987 72L18.698999999999987 73.5zM26.999999999999986 41.41L12.349999999999985 63.39V70.32L26.999999999999986 63V41.41zM61.499999999999986 22.101L29.999999999999986 37.851V61.5L61.499999999999986 45.75V22.101zM80.99999999999999 12.350999999999999L67.49999999999999 19.101V42.75L80.99999999999999 36V12.350999999999999z" />
    <glyph glyph-name="HISO HAMMER"
      unicode="&#xE011;"
      horiz-adv-x="126" d=" M0 76.5V22.5L27 9L54 22.5V40.5L108 67.5V85.5L99 90L54 67.5V76.5L27 90L0 76.5zM27 86.65L50.646 74.82300000000001L27 63L3.353999999999999 74.822L27 86.65zM99 86.65L104.65 83.82000000000001L54.00000000000001 58.5V64.15L99 86.65zM3 71.65L27 59.650000000000006V12.350000000000009L3 24.35000000000001V71.65z" />
    <glyph glyph-name="HISO HAMMER REVERSED"
      unicode="&#xE012;"
      horiz-adv-x="126" d=" M81 90L54 76.5V67.5L9 90L0 85.5V67.5L54 40.5V22.5L81 9L108 22.5V76.5L81 90zM54 58.5L3.3699999999999974 83.83L8.999999999999996 86.65L54 64.15V58.5zM3 69.35V80.65L54 55.150000000000006V43.85000000000001L3 69.35000000000001zM81 12.350000000000009L57 24.35000000000001V71.65L81 59.650000000000006V12.350000000000009zM81 63.00000000000001L57.354 74.82300000000001L81 86.65L104.646 74.82300000000001L81 63.00000000000001z" />
    <glyph glyph-name="HISO FACTORY"
      unicode="&#xE013;"
      horiz-adv-x="126" d=" M36 117V81L0 99V27L36 9L108 45V81L36 117zM36 12.379999999999995L27 16.86999999999999V35.999999999999986L9 44.999999999999986V25.859999999999985L3 28.859999999999985V94.14999999999999L36 77.66999999999999V12.379999999999981zM39 112.14999999999998L72 95.68999999999997V62.99999999999998L39 79.49999999999997V112.14999999999998zM46 27.49999999999997V36.49999999999997L62 44.49999999999997L62.03 35.49999999999997L46 27.49999999999997zM80 44.49999999999997L64 36.49999999999997V45.49999999999997L80 53.49999999999997V44.49999999999997zM98 53.49999999999997L82 45.49999999999997V54.49999999999997L98 62.49999999999997V53.49999999999997z" />
    <glyph glyph-name="HISO FACTORY REVERSED"
      unicode="&#xE014;"
      horiz-adv-x="126" d=" M0 81V45L72 9L108 27V99L72 81V117L0 81zM81 36L99 45V25.86L81 16.870000000000005V36zM3 79.15L36 95.65V59.650000000000006L72 77.65V12.38000000000001L3 46.85000000000001V79.15zM62 36.5V27.5L45.969 35.5L46 44.5L62 36.5zM10 62.5L26 54.5V45.5L10 53.5V62.5zM44 36.5L28 44.5V53.5L44 45.5V36.5z" />
    <glyph glyph-name="HISO MAIL"
      unicode="&#xE015;"
      horiz-adv-x="99" d=" M54 103.642L0 76.642V22.641999999999996L27 9.141999999999996L81 36.141999999999996V90.142L54 103.642zM54 100.292L77.8 88.542L28.879999999999995 64.082L5.058999999999994 75.822L54 100.292zM3 24.50199999999998V73.49199999999999L27 61.67199999999998V12.642999999999972L3 24.501999999999967zM77.27 68.88099999999997L67.21 54.48199999999997L77.27 48.54199999999997V43.90199999999997L64.91 51.20199999999997L56.04899999999999 38.52299999999997L48.04899999999999 43.69299999999997L30.299999999999994 19.071999999999974V25.902999999999977L44.69 45.872999999999976L30.299999999999997 55.17099999999998V59.931999999999974L54.979 43.97199999999998L77.27 75.86099999999998V68.88099999999997z" />
    <glyph glyph-name="LATIN CAPITAL LETTER Q"
      unicode="&#x51;"
      horiz-adv-x="90" d=" M39.35 25.319999999999993L54 32.64999999999999V17.999999999999986L39.35 25.319999999999993zM72 99V45L36 27L0 45V99L36 117L72 99zM36 30.349999999999994V81L68.65 97.32L36.00000000000001 113.64999999999999L3.000000000000007 97.14999999999999V46.849999999999994L36.00000000000001 30.349999999999994zM39.00000000000001 61.5V58.150000000000006L65.30000000000001 45L68.65100000000001 46.67L39.000000000000014 61.5z" />
    <glyph glyph-name="LATIN SMALL LETTER Q"
      unicode="&#x71;"
      horiz-adv-x="90" d=" M39.35 25.319999999999993L54 32.64999999999999V17.999999999999986L39.35 25.319999999999993zM72 99V45L36 27L0 45V99L36 117L72 99zM36 30.349999999999994V81L68.65 97.32L36.00000000000001 113.64999999999999L3.000000000000007 97.14999999999999V46.849999999999994L36.00000000000001 30.349999999999994zM39.00000000000001 61.5V58.150000000000006L65.30000000000001 45L68.65100000000001 46.67L39.000000000000014 61.5z" />
    <glyph glyph-name="LATIN CAPITAL LETTER R"
      unicode="&#x52;"
      horiz-adv-x="90" d=" M39.35 43.321L72 27L55.68 51.489999999999995L39.35 43.321zM72 99V63L36 45V9L0 27V99L36 117L72 99zM65.3 63L68.646 64.67699999999999L39.35 79.321L36 77.65L65.3 63zM33 79.5L68.646 97.32300000000001L36 113.65L3 97.15V28.85000000000001L33 13.850000000000009V79.50000000000001z" />
    <glyph glyph-name="LATIN SMALL LETTER R"
      unicode="&#x72;"
      horiz-adv-x="90" d=" M39.35 43.321L72 27L55.68 51.489999999999995L39.35 43.321zM72 99V63L36 45V9L0 27V99L36 117L72 99zM65.3 63L68.646 64.67699999999999L39.35 79.321L36 77.65L65.3 63zM33 79.5L68.646 97.32300000000001L36 113.65L3 97.15V28.85000000000001L33 13.850000000000009V79.50000000000001z" />
    <glyph glyph-name="LATIN CAPITAL LETTER S"
      unicode="&#x53;"
      horiz-adv-x="90" d=" M36 81L72 99L36 117L0 99V63L36 45L0 27L36 9L72 27V63L36 81zM3 64.85V97.15L36 113.65L65.28999999999999 99L32.99999999999999 82.85V49.849999999999994L2.999999999999993 64.85zM35.99999999999999 77.64999999999999L65.28999999999999 62.99999999999999L35.99999999999999 48.349999999999994V77.64999999999999zM35.99999999999999 12.349999999999994L6.6989999999999945 27L39.34899999999999 43.31999999999999L68.64999999999999 28.679999999999993L35.99999999999999 12.349999999999994z" />
    <glyph glyph-name="LATIN SMALL LETTER S"
      unicode="&#x73;"
      horiz-adv-x="90" d=" M36 81L72 99L36 117L0 99V63L36 45L0 27L36 9L72 27V63L36 81zM3 64.85V97.15L36 113.65L65.28999999999999 99L32.99999999999999 82.85V49.849999999999994L2.999999999999993 64.85zM35.99999999999999 77.64999999999999L65.28999999999999 62.99999999999999L35.99999999999999 48.349999999999994V77.64999999999999zM35.99999999999999 12.349999999999994L6.6989999999999945 27L39.34899999999999 43.31999999999999L68.64999999999999 28.679999999999993L35.99999999999999 12.349999999999994z" />
    <glyph glyph-name="LATIN CAPITAL LETTER T"
      unicode="&#x54;"
      horiz-adv-x="90" d=" M36 117L0 99L18 90V36L54 18V90L72 99L36 117zM51 22.849999999999994L21 37.849999999999994V88.5L36 81L51 88.53099999999999V22.849999999999994zM36 84.35L6.710000000000001 99L36 113.64999999999999L65.28999999999999 99L35.99999999999999 84.35z" />
    <glyph glyph-name="LATIN SMALL LETTER T"
      unicode="&#x74;"
      horiz-adv-x="90" d=" M36 117L0 99L18 90V36L54 18V90L72 99L36 117zM51 22.849999999999994L21 37.849999999999994V88.5L36 81L51 88.53099999999999V22.849999999999994zM36 84.35L6.710000000000001 99L36 113.64999999999999L65.28999999999999 99L35.99999999999999 84.35z" />
    <glyph glyph-name="LATIN CAPITAL LETTER U"
      unicode="&#x55;"
      horiz-adv-x="90" d=" M36 117V81.72999999999999L0 99.37V27L36 9L72 27V99L36 117zM3 28.849999999999994V94.14999999999999L36 77.64999999999999V12.349999999999994L3 28.849999999999994zM69 28.5L39 43.5V112.15L69 97.15V28.5z" />
    <glyph glyph-name="LATIN SMALL LETTER U"
      unicode="&#x75;"
      horiz-adv-x="90" d=" M36 117V81.72999999999999L0 99.37V27L36 9L72 27V99L36 117zM3 28.849999999999994V94.14999999999999L36 77.64999999999999V12.349999999999994L3 28.849999999999994zM69 28.5L39 43.5V112.15L69 97.15V28.5z" />
    <glyph glyph-name="LATIN CAPITAL LETTER V"
      unicode="&#x56;"
      horiz-adv-x="90" d=" M36 117L28.8 84.6L0 99L18 36L54 18L72 99L36 117zM20.52 38.089L4.76 93.27L33.48 78.91L49.239999999999995 23.72999999999999L20.519999999999996 38.088999999999984zM52.269999999999996 24.059999999999988L36 80.99999999999999L31.57 83.21999999999998L38.1 112.59999999999998L68.56 97.35999999999999L52.27 24.059999999999988z" />
    <glyph glyph-name="LATIN SMALL LETTER V"
      unicode="&#x76;"
      horiz-adv-x="90" d=" M36 117L28.8 84.6L0 99L18 36L54 18L72 99L36 117zM20.52 38.089L4.76 93.27L33.48 78.91L49.239999999999995 23.72999999999999L20.519999999999996 38.088999999999984zM52.269999999999996 24.059999999999988L36 80.99999999999999L31.57 83.21999999999998L38.1 112.59999999999998L68.56 97.35999999999999L52.27 24.059999999999988z" />
    <glyph glyph-name="LATIN CAPITAL LETTER W"
      unicode="&#x57;"
      horiz-adv-x="90" d=" M36 117V81.72999999999999L0 99.37V27L36 9L50.4 37.8L72 27V99L36 117zM36 12.349999999999994L3 28.849999999999994V94.14999999999999L36 77.64999999999999V12.349999999999994zM39 21.709999999999994V49.14999999999999L49.969 43.66L39 21.709999999999994zM54 45L39 52.5V112.15L69 97.15V30L54 45z" />
    <glyph glyph-name="LATIN SMALL LETTER W"
      unicode="&#x77;"
      horiz-adv-x="90" d=" M36 117V81.72999999999999L0 99.37V27L36 9L50.4 37.8L72 27V99L36 117zM36 12.349999999999994L3 28.849999999999994V94.14999999999999L36 77.64999999999999V12.349999999999994zM39 21.709999999999994V49.14999999999999L49.969 43.66L39 21.709999999999994zM54 45L39 52.5V112.15L69 97.15V30L54 45z" />
    <glyph glyph-name="LATIN CAPITAL LETTER X"
      unicode="&#x58;"
      horiz-adv-x="90" d=" M72 99L36 117L24 87L0 99L18 72L0 27L36 9L48 39L72 27L54 54L72 99zM34.43 13.14L3.8099999999999987 28.450000000000003L20.691 70.65L51.31 55.34L34.43000000000001 13.14zM36.00000000000001 81L26.690000000000005 85.66L37.57000000000001 112.86L68.19000000000001 97.54899999999999L51.98000000000001 57.03L36.000000000000014 81z" />
    <glyph glyph-name="LATIN SMALL LETTER X"
      unicode="&#x78;"
      horiz-adv-x="90" d=" M72 99L36 117L24 87L0 99L18 72L0 27L36 9L48 39L72 27L54 54L72 99zM34.43 13.14L3.8099999999999987 28.450000000000003L20.691 70.65L51.31 55.34L34.43000000000001 13.14zM36.00000000000001 81L26.690000000000005 85.66L37.57000000000001 112.86L68.19000000000001 97.54899999999999L51.98000000000001 57.03L36.000000000000014 81z" />
    <glyph glyph-name="LATIN CAPITAL LETTER Y"
      unicode="&#x59;"
      horiz-adv-x="90" d=" M72 90L36 108L24 78L0 90L18 63V27L54 9V45L72 90zM37.57 103.86L68.19 88.549L51.98 48.03L36 72L26.689999999999998 76.65L37.57 103.86zM21 28.849999999999994V61.5L51 46.5V13.849999999999994L21 28.849999999999994z" />
    <glyph glyph-name="LATIN SMALL LETTER Y"
      unicode="&#x79;"
      horiz-adv-x="90" d=" M72 90L36 108L24 78L0 90L18 63V27L54 9V45L72 90zM37.57 103.86L68.19 88.549L51.98 48.03L36 72L26.689999999999998 76.65L37.57 103.86zM21 28.849999999999994V61.5L51 46.5V13.849999999999994L21 28.849999999999994z" />
    <glyph glyph-name="LATIN CAPITAL LETTER Z"
      unicode="&#x5A;"
      horiz-adv-x="90" d=" M72 99L36 117L0 99L24 87L0 27L36 9L72 27L48 39L72 99zM6.709999999999994 99L35.99999999999999 113.65L65.28999999999999 99L35.99999999999999 84.35L6.709999999999994 99zM65.28999999999999 27L37.67999999999999 13.189999999999998L46.879999999999995 36.209999999999994L65.28999999999999 27zM34.42999999999999 13.14L3.8099999999999916 28.450000000000003L26.68999999999999 85.66L35.99999999999999 81L67.96 96.98L34.42999999999999 13.14z" />
    <glyph glyph-name="LATIN SMALL LETTER Z"
      unicode="&#x7A;"
      horiz-adv-x="90" d=" M72 99L36 117L0 99L24 87L0 27L36 9L72 27L48 39L72 99zM6.709999999999994 99L35.99999999999999 113.65L65.28999999999999 99L35.99999999999999 84.35L6.709999999999994 99zM65.28999999999999 27L37.67999999999999 13.189999999999998L46.879999999999995 36.209999999999994L65.28999999999999 27zM34.42999999999999 13.14L3.8099999999999916 28.450000000000003L26.68999999999999 85.66L35.99999999999999 81L67.96 96.98L34.42999999999999 13.14z" />
  </font>
</defs>
</svg>
