<?xml version="1.0" standalone="no"?>
<!DOCTYPE svg PUBLIC "-//W3C//DTD SVG 1.1//EN" "http://www.w3.org/Graphics/SVG/1.1/DTD/svg11.dtd" >
<svg xmlns="http://www.w3.org/2000/svg">
<metadata></metadata>
<defs>
<font id="hiso_darkregular" horiz-adv-x="827" >
<font-face units-per-em="1000" ascent="834" descent="-166" />
<missing-glyph horiz-adv-x="400" />
<glyph unicode=" "  horiz-adv-x="400" />
<glyph unicode="&#x09;" horiz-adv-x="400" />
<glyph unicode="&#xa0;" horiz-adv-x="400" />
<glyph unicode="&#x26;" horiz-adv-x="1000" />
<glyph unicode="-" horiz-adv-x="400" d="M33 482v-127l334 -152v126zM0 534l400 -183v-200l-400 183v200z" />
<glyph unicode="0" d="M413 834l334 -167v-583l-84 -125l-250 -125l-333 167v583l83 125zM719 98v31l-306 153v-31zM108 576v-558l3 -2l275 -137v547l92 138l207 103l-272 136l-231 -115zM413 53l188 -94l31 16l-219 109v-31z" />
<glyph unicode="1" horiz-adv-x="887" d="M625 107l182 -91l-363 -182l-364 182l182 91v545l-182 91l182 91l363 -182v-545zM262 800l-114 -57l329 -165h1l114 57zM292 637v-529l303 -151v646l-118 -59zM444 -132l131 65l-296 148l-131 -65zM625 -41l115 57l-115 57v-114z" />
<glyph unicode="2" horiz-adv-x="843" d="M763 667v-332v0l-333 -167v-1l330 -165h2l-333 -168l-333 167v334l316 158l-332 166l349 175zM401 185l314 157l-270 135l-321 -160v-298l277 -139v305zM143 659l300 -150l286 143l-300 150zM700 2l-270 134v-269z" />
<glyph unicode="3" horiz-adv-x="858" d="M444 834l334 -167v-666l-303 -151l-31 -16l-348 174l317 159l-333 167l333 167l-317 159zM731 660l-287 143l-286 -143l286 -144zM747 334l-303 151l-302 -151l302 -151zM444 152l-286 -144l286 -143l287 143z" />
<glyph unicode="4" horiz-adv-x="1069" d="M807 652v-818l-272 136l-91 -45l-364 182l364 727zM121 120l309 -154l337 673l-310 154zM466 -30l307 154l-184 92l-123 -245v-1zM777 -117v208l-209 -104zM989 198l-151 75v-154z" />
<glyph unicode="5" d="M427 410l320 -159v-250l-334 -167l-333 167l319 159v67l-319 159v281l333 167l334 -167l-320 -159v-98zM685 251l-258 128v-128h258zM685 1l-272 135l-271 -135l271 -136zM108 403l291 -145v267l286 142l-272 136l-305 -153v-247z" />
<glyph unicode="6" d="M413 501l334 -167v-333l-334 -167l-333 167v666l333 167l334 -167zM108 650v-632l278 -139v639l299 149l-272 136zM413 470v-605l303 151l-303 151l303 151z" />
<glyph unicode="7" d="M413 834l334 -167l-334 -833l-333 167l222 555l-222 111zM444 516l272 136l-303 151l-271 -136z" />
<glyph unicode="8" d="M413 834l334 -167v-666l-334 -167l-333 167v666zM108 18l278 -139v623l314 158l-287 143l-305 -153v-632zM413 183l303 151l-303 151v-302zM413 152v-287l287 143z" />
<glyph unicode="9" horiz-adv-x="842" d="M429 834l333 -167v-666l-333 -167l-349 174l318 159l-303 151v349zM123 650v-314l278 -139v321l299 149l-271 136zM142 8l287 -143l287 143l-287 144zM429 183l318 159l-318 159v-318z" />
<glyph unicode=":" horiz-adv-x="267" d="M83 63v-125l100 -50v125zM50 117l167 -83v-200l-167 83v200zM83 380v-125l100 -50v125zM50 434l167 -83v-200l-167 83v200z" />
<glyph unicode="A" d="M386 518l299 149l-272 136l-305 -153v-632l278 -139v639zM413 834l334 -167v-333l-334 167v-334v-333l-333 167v666zM747 1l-334 166l334 167v-333z" />
<glyph unicode="B" horiz-adv-x="887" d="M625 470l182 -91v-363l-363 -182l-364 182v727l182 91l363 -182v-182zM773 362l-148 75v-148l-151 75v-151zM444 -132v727l114 57l-296 148l-152 -76v-690zM740 16l33 17l-299 150v-34z" />
<glyph unicode="C" d="M413 501v-334l334 -166l-334 -167l-333 167v666l333 167l334 -167zM386 -121v639l299 149l-272 136l-305 -153v-632z" />
<glyph unicode="D" horiz-adv-x="887" d="M262 834l545 -273v-545l-363 -182l-364 182v727zM444 -132v693l148 74l-330 165l-152 -76v-689zM740 16l33 17l-299 149v-33z" />
<glyph unicode="E" d="M413 501l334 -167l-334 -167v334zM108 18l305 -153v302l334 -166l-334 -167l-333 167v666l333 167l334 -167l-334 -166v31l272 135l-272 136l-305 -153v-632z" />
<glyph unicode="F" d="M413 501v-84l167 -83l-167 -83v-417l-333 167v666l333 167l334 -167zM386 -121v639l299 149l-272 136l-305 -153v-632z" />
<glyph unicode="G" d="M413 501l334 -167v-333l-334 -167l-333 167v666l333 167l334 -167zM386 518l299 149l-272 136l-305 -153v-632l278 -139v639zM685 1l31 15l-303 151v-31zM580 251l136 67l-303 152v-136z" />
<glyph unicode="H" horiz-adv-x="798" d="M386 834l332 -166v-668l-306 153v-319l-332 166v638l306 -153v349zM412 196l247 123l-247 123v-246zM107 17l279 -140v579l-279 139v-578zM691 332v319l-279 140v-319z" />
<glyph unicode="I" horiz-adv-x="493" d="M80 1v583l333 -167v-583zM108 539v-521l278 -139v521zM80 834l333 -167v-166l-333 166v167zM386 546v104l-278 139v-105z" />
<glyph unicode="J" horiz-adv-x="705" d="M262 834l363 -182v-727l-181 -91l-364 182v273l182 -91v636zM110 35l334 -167v205l-334 167v-205zM592 -58l-118 59v-118zM595 -26v659l-303 152v-603l182 -90v-57z" />
<glyph unicode="K" d="M580 251l167 -250l-303 151l-31 -16v-302l-333 167v666l222 -111l111 278l334 -167l-167 -416l-167 83v-167zM428 796l-101 -252l59 -29l27 -14v-136l152 -76l146 365zM386 -121v605l-278 138v-604z" />
<glyph unicode="L" d="M413 167l334 -166l-334 -167l-333 167v833l333 -167v-500zM108 18l278 -139v771l-278 139v-771zM413 136v-271l272 136z" />
<glyph unicode="M" d="M413 834l334 -167v-666l-334 166v-333l-333 167v666l200 -100zM108 18l278 -139v605l-278 138v-604zM580 334l154 309l-308 154l-121 -242l108 -54l167 -167l-167 83v-31l167 -83v31z" />
<glyph unicode="N" horiz-adv-x="818" d="M395 834l343 -171v-658l-316 158v-329l-342 171v658l315 -158v329zM107 22l288 -144v597l-284 142l-4 1v-596zM710 47v599l-288 144v-312z" />
<glyph unicode="O" d="M413 834l334 -167v-666l-334 -167l-333 167v666zM441 122l244 -121l31 15l-275 137v-31zM108 18l305 -153v636l303 151l-303 151l-305 -153v-632z" />
<glyph unicode="P" d="M413 834l334 -167v-333l-334 -167v-333l-333 167v666zM413 470l272 -136l31 16l-272 135zM386 -121v608l330 165l-303 151l-305 -153v-632z" />
<glyph unicode="Q" horiz-adv-x="887" d="M625 -166l-148 74l148 74v-148zM444 834l363 -182v-545l-363 -182l-364 182v545zM110 125l334 -166v511l329 165l-329 165l-334 -167v-508zM773 124l-299 149v-33l266 -133z" />
<glyph unicode="R" d="M386 -121v608l330 165l-303 151l-305 -153v-632zM413 470l272 -136l31 16l-272 135zM413 834l334 -167v-333l-334 -167v-333l-333 167v666zM596 227l-152 -75l303 -151z" />
<glyph unicode="S" horiz-adv-x="858" d="M778 660l-318 -159l302 -152v-348l-333 -167l-349 174l333 167l-318 159v333l334 167zM123 351l292 -146v304l301 151l-287 143l-306 -153v-299zM429 -135l287 143l-287 144l-287 -144zM443 190l288 144l-288 144v-288z" />
<glyph unicode="T" horiz-adv-x="887" d="M444 834l363 -182l-182 -91v-727l-363 182v545l-182 91zM595 546l-151 -76l-152 76v-511l303 -152v663zM444 504l295 148l-295 148l-296 -148z" />
<glyph unicode="U" horiz-adv-x="822" d="M397 834l345 -172v-662l-331 -166l-331 166v662l317 -159v331zM108 17l289 -145v600l-289 145v-600zM714 13v632l-289 144v-631z" />
<glyph unicode="V" horiz-adv-x="887" d="M444 834l363 -182l-182 -818l-363 182l-182 636l291 -145zM287 37l290 -145l-159 557l-290 145zM608 -105l165 741l-308 154l-66 -297l45 -23z" />
<glyph unicode="W" horiz-adv-x="822" d="M397 834l345 -172v-662l-199 99l-132 -265l-331 166v662l317 -159v331zM425 -77l114 230l-114 57v-287zM397 472l-289 145v-600l289 -145v600zM714 27v618l-289 144v-548l152 -76z" />
<glyph unicode="X" d="M747 667l-167 -416l167 -250l-223 111l-111 -278l-333 167l167 416l-167 250l222 -111l111 278zM399 -128l156 391l-283 142l-157 -391zM413 501l148 -222l150 375l-283 142l-101 -252z" />
<glyph unicode="Y" horiz-adv-x="887" d="M807 652l-182 -454v-364l-363 182v363l-182 273l242 -121l122 303zM459 792l-109 -275l94 -47l161 -242l164 410zM292 35l303 -152v330l-303 151v-329z" />
<glyph unicode="Z" d="M747 667l-223 -555l223 -111l-334 -167l-333 167l222 555l-222 111l333 167zM142 667l271 -135l272 135l-272 136zM685 1l-171 85l-85 -213zM399 -128l310 777l-296 -148l-86 43l-212 -530z" />
<glyph unicode="a" d="M386 518l299 149l-272 136l-305 -153v-632l278 -139v639zM413 834l334 -167v-333l-334 167v-334v-333l-333 167v666zM747 1l-334 166l334 167v-333z" />
<glyph unicode="b" horiz-adv-x="887" d="M625 470l182 -91v-363l-363 -182l-364 182v727l182 91l363 -182v-182zM773 362l-148 75v-148l-151 75v-151zM444 -132v727l114 57l-296 148l-152 -76v-690zM740 16l33 17l-299 150v-34z" />
<glyph unicode="c" d="M413 501v-334l334 -166l-334 -167l-333 167v666l333 167l334 -167zM386 -121v639l299 149l-272 136l-305 -153v-632z" />
<glyph unicode="d" horiz-adv-x="887" d="M262 834l545 -273v-545l-363 -182l-364 182v727zM444 -132v693l148 74l-330 165l-152 -76v-689zM740 16l33 17l-299 149v-33z" />
<glyph unicode="e" d="M413 501l334 -167l-334 -167v334zM108 18l305 -153v302l334 -166l-334 -167l-333 167v666l333 167l334 -167l-334 -166v31l272 135l-272 136l-305 -153v-632z" />
<glyph unicode="f" d="M413 501v-84l167 -83l-167 -83v-417l-333 167v666l333 167l334 -167zM386 -121v639l299 149l-272 136l-305 -153v-632z" />
<glyph unicode="g" d="M413 501l334 -167v-333l-334 -167l-333 167v666l333 167l334 -167zM386 518l299 149l-272 136l-305 -153v-632l278 -139v639zM685 1l31 15l-303 151v-31zM580 251l136 67l-303 152v-136z" />
<glyph unicode="h" horiz-adv-x="798" d="M386 834l332 -166v-668l-306 153v-319l-332 166v638l306 -153v349zM412 196l247 123l-247 123v-246zM107 17l279 -140v579l-279 139v-578zM691 332v319l-279 140v-319z" />
<glyph unicode="i" horiz-adv-x="493" d="M80 1v583l333 -167v-583zM108 539v-521l278 -139v521zM80 834l333 -167v-166l-333 166v167zM386 546v104l-278 139v-105z" />
<glyph unicode="j" horiz-adv-x="705" d="M262 834l363 -182v-727l-181 -91l-364 182v273l182 -91v636zM110 35l334 -167v205l-334 167v-205zM592 -58l-118 59v-118zM595 -26v659l-303 152v-603l182 -90v-57z" />
<glyph unicode="k" d="M580 251l167 -250l-303 151l-31 -16v-302l-333 167v666l222 -111l111 278l334 -167l-167 -416l-167 83v-167zM428 796l-101 -252l59 -29l27 -14v-136l152 -76l146 365zM386 -121v605l-278 138v-604z" />
<glyph unicode="l" d="M413 167l334 -166l-334 -167l-333 167v833l333 -167v-500zM108 18l278 -139v771l-278 139v-771zM413 136v-271l272 136z" />
<glyph unicode="m" d="M413 834l334 -167v-666l-334 166v-333l-333 167v666l200 -100zM108 18l278 -139v605l-278 138v-604zM580 334l154 309l-308 154l-121 -242l108 -54l167 -167l-167 83v-31l167 -83v31z" />
<glyph unicode="n" horiz-adv-x="818" d="M395 834l343 -171v-658l-316 158v-329l-342 171v658l315 -158v329zM107 22l288 -144v597l-284 142l-4 1v-596zM710 47v599l-288 144v-312z" />
<glyph unicode="o" d="M413 834l334 -167v-666l-334 -167l-333 167v666zM441 122l244 -121l31 15l-275 137v-31zM108 18l305 -153v636l303 151l-303 151l-305 -153v-632z" />
<glyph unicode="p" d="M413 834l334 -167v-333l-334 -167v-333l-333 167v666zM413 470l272 -136l31 16l-272 135zM386 -121v608l330 165l-303 151l-305 -153v-632z" />
<glyph unicode="q" horiz-adv-x="887" d="M625 -166l-148 74l148 74v-148zM444 834l363 -182v-545l-363 -182l-364 182v545zM110 125l334 -166v511l329 165l-329 165l-334 -167v-508zM773 124l-299 149v-33l266 -133z" />
<glyph unicode="r" d="M386 -121v608l330 165l-303 151l-305 -153v-632zM413 470l272 -136l31 16l-272 135zM413 834l334 -167v-333l-334 -167v-333l-333 167v666zM596 227l-152 -75l303 -151z" />
<glyph unicode="s" horiz-adv-x="858" d="M778 660l-318 -159l302 -152v-348l-333 -167l-349 174l333 167l-318 159v333l334 167zM123 351l292 -146v304l301 151l-287 143l-306 -153v-299zM429 -135l287 143l-287 144l-287 -144zM443 190l288 144l-288 144v-288z" />
<glyph unicode="t" horiz-adv-x="887" d="M444 834l363 -182l-182 -91v-727l-363 182v545l-182 91zM595 546l-151 -76l-152 76v-511l303 -152v663zM444 504l295 148l-295 148l-296 -148z" />
<glyph unicode="u" horiz-adv-x="822" d="M397 834l345 -172v-662l-331 -166l-331 166v662l317 -159v331zM108 17l289 -145v600l-289 145v-600zM714 13v632l-289 144v-631z" />
<glyph unicode="v" horiz-adv-x="887" d="M444 834l363 -182l-182 -818l-363 182l-182 636l291 -145zM287 37l290 -145l-159 557l-290 145zM608 -105l165 741l-308 154l-66 -297l45 -23z" />
<glyph unicode="w" horiz-adv-x="822" d="M397 834l345 -172v-662l-199 99l-132 -265l-331 166v662l317 -159v331zM425 -77l114 230l-114 57v-287zM397 472l-289 145v-600l289 -145v600zM714 27v618l-289 144v-548l152 -76z" />
<glyph unicode="x" d="M747 667l-167 -416l167 -250l-223 111l-111 -278l-333 167l167 416l-167 250l222 -111l111 278zM399 -128l156 391l-283 142l-157 -391zM413 501l148 -222l150 375l-283 142l-101 -252z" />
<glyph unicode="y" horiz-adv-x="887" d="M807 652l-182 -454v-364l-363 182v363l-182 273l242 -121l122 303zM459 792l-109 -275l94 -47l161 -242l164 410zM292 35l303 -152v330l-303 151v-329z" />
<glyph unicode="z" d="M747 667l-223 -555l223 -111l-334 -167l-333 167l222 555l-222 111l333 167zM142 667l271 -135l272 135l-272 136zM685 1l-171 85l-85 -213zM399 -128l310 777l-296 -148l-86 43l-212 -530z" />
<glyph unicode="&#xcf;" horiz-adv-x="493" d="M80 584l333 -167v-583l-333 167v583zM386 -121v521l-278 139v-521zM80 834l139 -69v-167l-139 69v167zM191 643v104l-83 42v-105zM274 737l139 -70v-166l-139 69v167zM386 546v104l-84 42v-105z" />
<glyph unicode="&#xef;" horiz-adv-x="493" d="M80 584l333 -167v-583l-333 167v583zM386 -121v521l-278 139v-521zM80 834l139 -69v-167l-139 69v167zM191 643v104l-83 42v-105zM274 737l139 -70v-166l-139 69v167zM386 546v104l-84 42v-105z" />
<glyph unicode="&#x2139;" horiz-adv-x="1017" d="M651 834l286 -143v-571l-571 -286l-286 143v571zM112 -3l254 -129v518l-254 129v-518zM673 60q87 46 146.5 132t61.5 180q2 84 -61 116t-147 -12q-88 -45 -147 -131.5t-62 -180.5q-2 -84 61 -116t148 12zM382 414l519 259l-250 126l-518 -260zM646 374q-10 6 -10 20 q0 16 10 30q10 15 25 23t25 2q10 -4 10 -20t-10 -30q-11 -16 -25 -23t-25 -2zM704 156q0 -4 3 -4q6 0 31 11v-18q-22 -10 -72 -35q-42 -21 -59 -30v17q25 14 30 19q4 6 5 10q2 20 2 67q0 70 -2 82q-1 4 -3 4q-5 2 -32 -12v17q38 24 53 35q16 11 39 32h6q-3 -37 -3 -70v-79 q0 -38 2 -46z" />
<glyph unicode="&#x2190;" horiz-adv-x="1360" d="M880 834l400 -200v-400l-400 -200v-200l-800 400l400 600l200 -100zM880 797l-163 -82l163 -81v-181l344 172zM129 247l355 -178l362 545l-355 177z" />
<glyph unicode="&#x2192;" horiz-adv-x="1360" d="M480 834l800 -400l-400 -600l-200 100l-200 -100l-381 191l-19 9v19v381l400 200v200zM513 780v-144l350 -175v144zM499 606l-363 -181l344 -172l363 181zM113 55l350 -175v344l-350 175v-344zM717 -47l146 -73v146z" />
<glyph unicode="&#x25a6;" horiz-adv-x="1019" d="M937 691l2 1v-571l-571 -286l-2 -1l-286 143v571l571 286zM366 -131v519l-254 127v-519zM888 150v293l-471 -235v-293zM417 264l325 163v109l-325 -162v-110zM888 500v109l-99 -49v-110zM384 414l518 259l-251 126l-517 -259zM816 484l-9 6l24 38l-22 14l5 9l23 -14 l24 39l9 -6l-24 -38l22 -14l-5 -9l-23 14zM846 177v-1l-387 -193v1v35l387 194v-36zM846 361v-36l-225 -112v35zM846 287v-36l-225 -112v35zM591 116v-2l-132 -65v143l132 65v-141z" />
<glyph unicode="&#x25a9;" horiz-adv-x="1227" d="M613 834l534 -267v-133l-134 -67v-333l-400 -200l-400 200v333l-133 67v133zM391 448v-35l230 142l-31 15zM391 412v-108l222 -112v109zM102 448l266 -133v108l-266 133v-108zM379 160l-63 32v-102l63 -32v102zM991 324v32l-378 -189l-222 112v-44l68 -35v-120l-80 -40 l-80 40v120l69 35v55l-132 66v-308l377 -189v276z" />
<glyph unicode="&#x260e;" horiz-adv-x="1195" d="M1027 428l88 -44v-176l-747 -373l-2 -1l-286 143v571l571 286l286 -143l2 1v-308zM1027 393l-88 -44v-58l146 73zM620 328v110l-67 -34v-109zM521 279v109l-71 -35v-110zM450 208v-92l71 35v92zM553 259v-92l67 34v92zM450 81v-110l71 35v110zM553 132v-110l67 34v109z M683 469v-382l168 84l1 1v382zM651 798l-517 -258l250 -126l518 259zM112 -4l254 -127v519l-254 127v-519z" />
<glyph unicode="&#x2665;" horiz-adv-x="1160" d="M680 834l400 -200v-300l-233 117l-13 -31l231 -116l-170 -340l-400 200l94 188l-109 -55v-163l400 -200l-200 -100l-400 200l-200 200v300l200 100l133 -67l67 167zM680 797l-174 -87l-63 -158l237 -118l78 -116l96 240l151 76zM447 317l196 98l-363 182l-167 -84v-265 l187 -187l400 -200l-253 252v204z" />
<glyph unicode="&#x2692;" horiz-adv-x="1577" d="M1330 834l167 -83v-250l-750 -300v-200l-334 -167l-333 167v666l333 167l334 -167v-66zM1329 804l-582 -233v-105l699 279zM108 18l305 -152v635l-305 152v-635zM1469 519v206l-722 -289v-205z" />
<glyph unicode="&#x26ed;" horiz-adv-x="1303" d="M651 834l572 -286v-285l-857 -429l-286 143v571l286 -143v286l285 -143v286zM445 -19l127 63v72l-127 -64v-71zM1001 330l-127 -63v-72l127 64v71zM715 187l-127 -63v-72l127 64v71zM731 124l127 63v72l-127 -64v-71zM1017 267l126 63v71l-126 -63v-71zM675 796v-260 l262 -131v258zM390 653v-259l261 -131v259zM294 -104l72 -35v518l-262 131v-518l47 -24v152l143 -72v-152z" />
<glyph unicode="&#x2709;" horiz-adv-x="1017" d="M651 834l286 -143v-571l-571 -286l-286 143v571zM651 799l-517 -259l252 -125l517 259zM112 -3l254 -126v519l-254 125v-518zM898 466v74l-236 -337l-261 168v-50l152 -98l-152 -212v-72l187 261l85 -55l94 134l131 -77v49l-107 63z" />
<glyph unicode="&#x270e;" horiz-adv-x="1792" d="M803 834l909 -455v-363l-363 -182l-909 455l-360 545h723zM1440 470l-637 319l-294 -147l636 -319zM359 794l-77 -39l182 -91l259 130h-364zM258 638l182 -276v269l-182 91v-84zM480 313l647 -323v297l-647 324v-298zM1207 -50l142 -71v296l-142 71v-296zM1372 209 l295 148l-136 68l-296 -148z" />
<glyph unicode="&#x270f;" horiz-adv-x="1792" d="M989 834h723l-359 -545l-909 -455l-364 182v363zM403 -101v274l-283 141v-273zM421 209l136 69l-295 147l-137 -68zM666 -10v297l-81 -41v-296zM648 323l636 319l-295 147l-637 -319l295 -147h1zM1328 664l137 69l-122 61h-273zM1494 576v126l-141 -71v-269z" />
<glyph unicode="&#x2710;" horiz-adv-x="572" d="M286 834l206 -103v-552l-206 -345l-206 345v552zM286 808l-168 -83l168 -84l168 84zM275 621l-172 86v-99l172 -86v99zM275 471l-172 86v-364l172 -86v364zM118 159l97 -162l60 -30v114zM357 -3l97 162l-156 -78v-114zM298 471l171 86v51l-171 -86v-51z" />
<glyph unicode="&#xe000;" horiz-adv-x="835" d="M0 835h835v-835h-835v835z" />
</font>
</defs>
</svg>
