<?xml version="1.0" standalone="no"?>
<!DOCTYPE svg PUBLIC "-//W3C//DTD SVG 1.1//EN" "http://www.w3.org/Graphics/SVG/1.1/DTD/svg11.dtd" >
<svg xmlns="http://www.w3.org/2000/svg">
<metadata></metadata>
<defs>
<font id="hiso_plainregular" horiz-adv-x="1536" >
<font-face units-per-em="2048" ascent="1741" descent="-307" />
<missing-glyph horiz-adv-x="1228" />
<glyph unicode=" "  horiz-adv-x="1228" />
<glyph unicode="&#x09;" horiz-adv-x="1228" />
<glyph unicode="&#xa0;" horiz-adv-x="1228" />
<glyph unicode="0" d="M0 12v1075l154 232l460 229l615 -307v-1075l-154 -229l-461 -232z" />
<glyph unicode="1" d="M0 0l317 147v889l-294 150l294 147l594 -297v-876l318 -160l-637 -297z" />
<glyph unicode="2" d="M0 0v614l614 308l-614 307l614 307l615 -307v-615l-615 -307l615 -307l-615 -307z" />
<glyph unicode="3" d="M0 0l614 307l-614 307l614 308l-614 307l614 307l615 -307v-1229l-615 -307z" />
<glyph unicode="4" horiz-adv-x="1843" d="M0 307l614 1229l615 -307v-615l307 -153l-307 -154v-461l-461 232l-154 -78z" />
<glyph unicode="5" d="M0 0l563 283v204l-563 281v461l614 307l615 -307l-615 -307v-154l615 -307v-461l-615 -307z" />
<glyph unicode="6" d="M0 0v1229l614 307l615 -307l-615 -307l615 -308v-614l-615 -307z" />
<glyph unicode="7" d="M0 0l410 1024l-410 205l614 307l615 -307l-615 -1536z" />
<glyph unicode="8" d="M0 0v1229l614 307l615 -307v-1229l-615 -307z" />
<glyph unicode="9" d="M0 0l614 307l-614 307v615l614 307l615 -307v-1229l-615 -307z" />
<glyph unicode="A" d="M0 0v1229l614 307l615 -307v-1229l-615 307v-614z" />
<glyph unicode="B" d="M0 0v1229l307 153l615 -307v-307l307 -154v-614l-615 -307z" />
<glyph unicode="C" d="M0 0v1229l614 307l615 -307l-615 -307v-615l615 -307l-615 -307z" />
<glyph unicode="D" d="M0 0v1229l307 153l922 -460v-922l-615 -307z" />
<glyph unicode="E" d="M0 0v1229l614 307l615 -307l-615 -307l615 -308l-615 -307l615 -307l-615 -307z" />
<glyph unicode="F" d="M0 0v1229l614 307l615 -307l-615 -307v-154l308 -154l-308 -153v-768z" />
<glyph unicode="G" d="M0 0v1229l614 307l615 -307l-615 -307l615 -308v-614l-615 -307z" />
<glyph unicode="H" d="M0 0v1229l563 -281v615l666 -334v-1229l-615 307v-614z" />
<glyph unicode="I" horiz-adv-x="921" d="M0 14v1076l614 -308v-1075zM0 1243v307l614 -307v-307z" />
<glyph unicode="J" horiz-adv-x="1228" d="M0 154v460l307 -153v1075l615 -307v-1229l-308 -154z" />
<glyph unicode="K" d="M0 0v1229l410 -205l204 512l615 -307l-307 -768l307 -461l-615 307v-614z" />
<glyph unicode="L" d="M0 0v1536l614 -307v-922l615 -307l-615 -307z" />
<glyph unicode="M" d="M0 0v1229l369 -185l245 492l615 -307v-1229l-615 307v-614z" />
<glyph unicode="N" d="M0 0v1229l614 -307v614l615 -307v-1229l-615 307v-614z" />
<glyph unicode="O" d="M0 0v1229l614 307l615 -307v-1229l-615 -307z" />
<glyph unicode="P" d="M0 0v1229l614 307l615 -307v-615l-615 -307v-614z" />
<glyph unicode="Q" d="M0 307v922l614 307l615 -307v-922l-307 -153v-308z" />
<glyph unicode="R" d="M0 0v1229l614 307l615 -307v-615l-307 -153l307 -461l-615 307v-614z" />
<glyph unicode="S" d="M0 0l614 307l-614 307v615l614 307l615 -307l-615 -307l615 -308v-614l-615 -307z" />
<glyph unicode="T" d="M0 1229l614 307l615 -307l-307 -154v-1229l-615 308v921z" />
<glyph unicode="U" d="M0 0v1229l614 -307v614l615 -307v-1229l-615 -307z" />
<glyph unicode="V" d="M0 1229l492 -246l122 553l615 -307l-307 -1383l-615 308z" />
<glyph unicode="W" d="M0 0v1229l614 -307v614l615 -307v-1229l-369 184l-246 -491z" />
<glyph unicode="X" d="M0 0l307 768l-307 461l410 -205l204 512l615 -307l-307 -768l307 -461l-410 205l-205 -512z" />
<glyph unicode="Y" d="M0 1229l410 -205l204 512l615 -307l-307 -768v-615l-615 308v614z" />
<glyph unicode="Z" d="M0 0l410 1024l-410 205l614 307l615 -307l-410 -1024l410 -205l-615 -307z" />
<glyph unicode="a" d="M0 0v1229l614 307l615 -307v-1229l-615 307v-614z" />
<glyph unicode="b" d="M0 0v1229l307 153l615 -307v-307l307 -154v-614l-615 -307z" />
<glyph unicode="c" d="M0 0v1229l614 307l615 -307l-615 -307v-615l615 -307l-615 -307z" />
<glyph unicode="d" d="M0 0v1229l307 153l922 -460v-922l-615 -307z" />
<glyph unicode="e" d="M0 0v1229l614 307l615 -307l-615 -307l615 -308l-615 -307l615 -307l-615 -307z" />
<glyph unicode="f" d="M0 0v1229l614 307l615 -307l-615 -307v-154l308 -154l-308 -153v-768z" />
<glyph unicode="g" d="M0 0v1229l614 307l615 -307l-615 -307l615 -308v-614l-615 -307z" />
<glyph unicode="h" d="M0 0v1229l563 -281v615l666 -334v-1229l-615 307v-614z" />
<glyph unicode="i" horiz-adv-x="921" d="M0 14v1076l614 -308v-1075zM0 1243v307l614 -307v-307z" />
<glyph unicode="j" horiz-adv-x="1228" d="M0 154v460l307 -153v1075l615 -307v-1229l-308 -154z" />
<glyph unicode="k" d="M0 0v1229l410 -205l204 512l615 -307l-307 -768l307 -461l-615 307v-614z" />
<glyph unicode="l" d="M0 0v1536l614 -307v-922l615 -307l-615 -307z" />
<glyph unicode="m" d="M0 0v1229l369 -185l245 492l615 -307v-1229l-615 307v-614z" />
<glyph unicode="n" d="M0 0v1229l614 -307v614l615 -307v-1229l-615 307v-614z" />
<glyph unicode="o" d="M0 0v1229l614 307l615 -307v-1229l-615 -307z" />
<glyph unicode="p" d="M0 0v1229l614 307l615 -307v-615l-615 -307v-614z" />
<glyph unicode="q" d="M0 307v922l614 307l615 -307v-922l-307 -153v-308z" />
<glyph unicode="r" d="M0 0v1229l614 307l615 -307v-615l-307 -153l307 -461l-615 307v-614z" />
<glyph unicode="s" d="M0 0l614 307l-614 307v615l614 307l615 -307l-615 -307l615 -308v-614l-615 -307z" />
<glyph unicode="t" d="M0 1229l614 307l615 -307l-307 -154v-1229l-615 308v921z" />
<glyph unicode="u" d="M0 0v1229l614 -307v614l615 -307v-1229l-615 -307z" />
<glyph unicode="v" d="M0 1229l492 -246l122 553l615 -307l-307 -1383l-615 308z" />
<glyph unicode="w" d="M0 0v1229l614 -307v614l615 -307v-1229l-369 184l-246 -491z" />
<glyph unicode="x" d="M0 0l307 768l-307 461l410 -205l204 512l615 -307l-307 -768l307 -461l-410 205l-205 -512z" />
<glyph unicode="y" d="M0 1229l410 -205l204 512l615 -307l-307 -768v-615l-615 308v614z" />
<glyph unicode="z" d="M0 0l410 1024l-410 205l614 307l615 -307l-410 -1024l410 -205l-615 -307z" />
<glyph unicode="&#x2000;" horiz-adv-x="781" />
<glyph unicode="&#x2001;" horiz-adv-x="1563" />
<glyph unicode="&#x2002;" horiz-adv-x="781" />
<glyph unicode="&#x2003;" horiz-adv-x="1563" />
<glyph unicode="&#x2004;" horiz-adv-x="521" />
<glyph unicode="&#x2005;" horiz-adv-x="390" />
<glyph unicode="&#x2006;" horiz-adv-x="260" />
<glyph unicode="&#x2007;" horiz-adv-x="260" />
<glyph unicode="&#x2008;" horiz-adv-x="195" />
<glyph unicode="&#x2009;" horiz-adv-x="312" />
<glyph unicode="&#x200a;" horiz-adv-x="86" />
<glyph unicode="&#x202f;" horiz-adv-x="312" />
<glyph unicode="&#x205f;" horiz-adv-x="390" />
<glyph unicode="&#xe000;" d="M0 0v1536h1536v-1536h-1536z" />
</font>
</defs>
</svg>
