<?xml version="1.0"?>
<svg width="28" height="20" xmlns="http://www.w3.org/2000/svg">
 <g>
  <title>Layer 1</title>
  <path fill="#e5e5e5" d="m19.841999,18.08563l-7.102,-7.060984c0.799,-1.138999 1.27,-2.525001 1.27,-4.023c-0.000999,-3.868002 -3.136999,-7.004003 -7.005999,-7.004003c-3.868,0 -7.004,3.136002 -7.004,7.004003c0,3.869 3.136,7.005001 7.004,7.005001c1.395,0 2.692,-0.407001 3.784999,-1.110001l7.141001,7.100984l1.911999,-1.912001zm-17.506999,-11.083983c0,-2.578 2.091,-4.669003 4.669,-4.669003c2.579999,0 4.67,2.090003 4.67,4.669003c0,2.58 -2.09,4.67 -4.67,4.67c-2.578,0 -4.669,-2.091 -4.669,-4.67z"/>
 </g>
</svg>